<?xml version="1.0" standalone="no"?>
<!--
Font Awesome Pro 5.13.0 by @fontawesome - https://fontawesome.com
License - https://fontawesome.com/license (Commercial License)
-->
<!DOCTYPE svg PUBLIC "-//W3C//DTD SVG 1.1//EN" "http://www.w3.org/Graphics/SVG/1.1/DTD/svg11.dtd" >
<svg xmlns="http://www.w3.org/2000/svg" version="1.1">
	<metadata>
		Created by FontForge 20190801 at Mon Mar 23 10:47:26 2020
		By Robert Madole
		Copyright (c) Font Awesome
	</metadata>
	<defs>
		<font id="FontAwesome5Duotone-Solid" horiz-adv-x="512">
			<font-face
					font-family="Font Awesome 5 Duotone Solid"
					font-weight="900"
					font-stretch="normal"
					units-per-em="512"
					panose-1="2 0 5 3 0 0 0 0 0 0"
					ascent="448"
					descent="-64"
					bbox="-1.0166 -64.3213 640.042 449"
					underline-thickness="25"
					underline-position="-50"
					unicode-range="U+0020-10F976"
			/>
			<missing-glyph/>
			<glyph glyph-name="gift-primary" unicode="&#xf06b;"
				   d="M224 -32v160h64v-160h-64zM359.54 416c48.75 0 88.46 -39.5 88.46 -88c-0.0986328 -11.7246 -4.6416 -29.6445 -10.1396 -40h-78.3105c22.0801 0 40 17.9199 40 40s-17.9199 40 -40 40c-20.5498 0 -34.8799 -3.5 -86.5498 -80h15v-128h-64v128h14.9102
c-51.7705 76.7002 -66.5498 80 -86.5498 80c-22.0801 0 -40 -17.9199 -40 -40s17.9199 -40 40 -40h-78.21c-5.54199 10.3447 -10.0889 28.2646 -10.1504 40c0 48.5 39.71 88 88.46 88c41.8203 0 68.8604 -21.2998 103.54 -68.2998
c34.6797 47 61.7197 68.2998 103.54 68.2998z"/>
			<glyph glyph-name="signature-primary" unicode="&#xf5b7;" horiz-adv-x="640"
			/>
			<glyph glyph-name="baby-carriage-primary" unicode="&#xf77d;"
				   d="M496 352c8.83203 0 16 -7.16797 16 -16v-32c0 -8.83203 -7.16797 -16 -16 -16h-48v-64v-0.226562c0 -44.1143 -25.4551 -105.093 -56.8203 -136.113c-10.3145 4.60254 -27.8535 8.33887 -39.1494 8.33887c-37.4424 0 -78 -28.6357 -90.5303 -63.9189
c-1.83008 -0.0800781 -3.66016 -0.0800781 -5.5 -0.0800781h-64c-1.83984 0 -3.66992 0.0302734 -5.5 0.0800781c-12.5303 35.2832 -53.0879 63.9189 -90.5303 63.9189c-11.2959 0 -28.835 -3.73633 -39.1494 -8.33887c-31.3652 31.0205 -56.8203 91.999 -56.8203 136.113
v0.226562h384v64c0.0332031 35.2949 28.7051 63.9668 64 64h48z"/>
			<glyph glyph-name="bells-primary" unicode="&#xf77f;" horiz-adv-x="640"
				   d="M137.85 3.86035c-23.1016 8.45801 -41.8506 35.29 -41.8506 59.8916c0 1.49805 0.103516 3.9248 0.231445 5.41797l115.449 -42.1104c-10.5098 -14.915 -33.8486 -27.0205 -52.0947 -27.0205c-6.18457 0 -15.9219 1.71191 -21.7354 3.82129zM625.55 149
c21.7998 -11.2598 17.4502 -41.4502 -3.09961 -49l-300.71 -109.69c-22.5098 -8.21973 -42.5205 14.7402 -33.7207 35.5c9.2002 21.7803 28.7109 56.6807 -0.5 137c-0.799805 2.2002 -14.8096 40.6104 -15.6094 42.7207c-25.1904 69.3701 10.4902 146.109 79.7295 171.37
c69.2402 25.2598 145.761 -10.5303 171.07 -79.9004c0.700195 -2.11035 14.5996 -40.5195 15.4004 -42.7197c29.1094 -80.2803 66.4395 -94.5498 87.4395 -105.28z"/>
			<glyph glyph-name="blog-primary" unicode="&#xf781;"
				   d="M172.2 221.18c75.5 -15 129.899 -89.2998 112.5 -172.199c-11.4004 -54.3008 -55.2998 -98.3008 -109.7 -109.7c-92.9004 -19.5 -175 51.2002 -175 140.72v248v0.0605469c0 13.2148 10.7246 23.9395 23.9395 23.9395h0.0605469h48h0.0605469
c13.2148 0 23.9395 -10.7246 23.9395 -23.9395v-0.0605469v-248v-0.000976562c0 -26.4961 21.5039 -48 48 -48s48 21.5039 48 48c0 18.4287 -14.0225 38.5889 -31.2998 45.001c-9.60059 3.59961 -16.7002 11.7998 -16.7002 22v50.4004
c0 14.8994 13.5996 26.6992 28.2002 23.7998v-0.0205078z"/>
			<glyph glyph-name="boot-primary" unicode="&#xf782;"
				   d="M439.3 162.2c40.1309 -10.0645 72.7002 -51.8115 72.7002 -93.1846v-0.015625v-37h-512v288h320v-32h-56c-4.41602 0 -8 -3.58398 -8 -8v-16c0 -4.41602 3.58398 -8 8 -8h56v-32h-56c-4.41602 0 -8 -3.58398 -8 -8v-16c0 -4.41602 3.58398 -8 8 -8h56z"/>
			<glyph glyph-name="cash-register-primary" unicode="&#xf788;"
				   d="M511.2 69.2002c0.449219 -2.53711 0.814453 -6.6875 0.814453 -9.26367c0 -0.34082 -0.00683594 -0.895508 -0.0146484 -1.23633v-90.7002c0 -17.6641 -14.3359 -32 -32 -32h-448c-17.6641 0 -32 14.3359 -32 32v90.7998
c0.000976562 2.91895 0.404297 7.62305 0.900391 10.5l26.6992 160c2.50879 14.7227 16.666 26.6846 31.6006 26.7002h101.26l47.54 -0.0595703v0.0595703l244.9 -0.0996094h0.0419922c14.9443 0 29.082 -11.9619 31.5576 -26.7002zM280.1 200v-16
c0 -8.83203 7.16797 -16 16 -16h16c8.83203 0 16 7.16797 16 16v16c0 8.83203 -7.16797 16 -16 16h-16c-8.83203 0 -16 -7.16797 -16 -16zM248.1 136c-8.83203 0 -16 -7.16797 -16 -16v-16c0 -8.83203 7.16797 -16 16 -16h16c8.83203 0 16 7.16797 16 16v16
c0 8.83203 -7.16797 16 -16 16h-16zM184.1 200v-16c0 -8.83203 7.16797 -16 16 -16h16c8.83203 0 16 7.16797 16 16v16c0 8.83203 -7.16797 16 -16 16h-16c-8.83203 0 -16 -7.16797 -16 -16zM120.1 168c8.83203 0 16 7.16797 16 16v16c0 8.83203 -7.16797 16 -16 16h-16
c-8.83203 0 -16 -7.16797 -16 -16v-16c0 -8.83203 7.16797 -16 16 -16h16zM136.1 104c0 -8.83203 7.16797 -16 16 -16h16c8.83203 0 16 7.16797 16 16v16c0 8.83203 -7.16797 16 -16 16h-16c-8.83203 0 -16 -7.16797 -16 -16v-16zM352.1 -8v16c0 4.41602 -3.58398 8 -8 8
h-176c-4.41602 0 -8 -3.58398 -8 -8v-16c0 -4.41602 3.58398 -8 8 -8h176c4.41602 0 8 3.58398 8 8zM376.1 104v16c0 8.83203 -7.16797 16 -16 16h-16c-8.83203 0 -16 -7.16797 -16 -16v-16c0 -8.83203 7.16797 -16 16 -16h16c8.83203 0 16 7.16797 16 16zM424.1 184v16
c0 8.83203 -7.16797 16 -16 16h-16c-8.83203 0 -16 -7.16797 -16 -16v-16c0 -8.83203 7.16797 -16 16 -16h16c8.83203 0 16 7.16797 16 16z"/>
			<glyph glyph-name="chart-network-primary" unicode="&#xf78a;" horiz-adv-x="640"
				   d="M576 64h0.133789c35.2559 0 63.8701 -28.6133 63.8701 -63.8701c0 -35.2559 -28.6143 -63.8701 -63.8701 -63.8701s-63.8701 28.6143 -63.8701 63.8701c0 2.68457 0.330078 7.0166 0.736328 9.66992l-95.7998 57.5
c-18.2715 -19.4854 -54.7783 -35.2998 -81.4902 -35.2998c-61.6641 0 -111.71 50.0459 -111.71 111.71v0.290039c0 36.2002 17.5 68.0996 44.2002 88.5l-41 87.7998c-1.10059 0 -2.10059 -0.299805 -3.2002 -0.299805h-0.166992
c-35.2393 0 -63.8398 28.6006 -63.8398 63.8398s28.6006 63.8398 63.8398 63.8398c35.2402 0 63.8408 -28.6006 63.8408 -63.8398c0 -13.752 -7.55957 -33.123 -16.874 -43.2402l40.7998 -87.3994c6.64355 1.56641 17.5752 2.86621 24.4004 2.89941h0.0595703
c61.791 0 111.94 -50.1484 111.94 -111.939v-0.0605469c-0.109375 -10.0869 -2.93164 -25.9902 -6.2998 -35.5l96 -57.5996c9.37207 7.11816 26.5303 12.9424 38.2998 13zM336 96c26.4961 0 48 21.5039 48 48s-21.5039 48 -48 48s-48 -21.5039 -48 -48s21.5039 -48 48 -48z
"/>
			<glyph glyph-name="chimney-primary" unicode="&#xf78b;"
				   d="M0 288v128c0 17.6641 14.3359 32 32 32h448c17.6641 0 32 -14.3359 32 -32v-128c0 -17.6641 -14.3359 -32 -32 -32h-448c-17.6641 0 -32 14.3359 -32 32z"/>
			<glyph glyph-name="compress-arrows-alt-primary" unicode="&#xf78c;"
				   d="M183 376.95c15.0498 15.0498 41 4.39941 41 -16.9502v-112v-0.0605469c0 -13.2148 -10.7246 -23.9395 -23.9395 -23.9395h-0.0605469h-112c-21.4004 0 -32.0996 25.7998 -17 40.9004l33 31.0996l-99.3496 99.3496c-2.56641 2.5918 -4.64844 7.6543 -4.64844 11.3008
s2.08203 8.70801 4.64844 11.2998l25.3994 25.3994c2.5918 2.56641 7.65332 4.64844 11.2998 4.64844s8.70898 -2.08203 11.3008 -4.64844l99.3496 -99.3496zM507.3 -11.3496c2.59277 -2.59668 4.64844 -7.68164 4.64844 -11.3506
c0 -3.64648 -2.08301 -8.70898 -4.64844 -11.2998l-25.3994 -25.4004c-2.5918 -2.56543 -7.6543 -4.64746 -11.3008 -4.64746s-8.70801 2.08203 -11.2998 4.64746l-99.2998 99.3008l-31 -32.9004c-15.0996 -15.0996 -41 -4.40039 -41 17v112v0.0605469
c0 13.2148 10.7246 23.9395 23.9395 23.9395h0.0605469h112c21.4004 0 32.0996 -25.7998 17 -40.9004l-33 -31.0996z"/>
			<glyph glyph-name="deer-primary" unicode="&#xf78e;"
				   d="M488.7 314.7c12.8232 -3.66504 23.2617 -17.4639 23.2998 -30.7998v-27.9004c0 -17.6641 -14.3359 -32 -32 -32h-64l-32 -64v-208c0 -8.83203 -7.16797 -16 -16 -16h-64c-8.83203 0 -16 7.16797 -16 16v144h-157.3l-19.4004 -51.7002l26.2998 -88.3994
c0.266602 -1.06055 0.483398 -2.80762 0.483398 -3.90039c0 -8.82227 -7.16016 -15.9902 -15.9834 -16h-63.7998c-6.87891 0.0078125 -13.8232 5.42871 -15.5 12.0996l-24.8994 82.5c-1.0459 4.2041 -1.89453 11.1318 -1.89453 15.4639
c0 6.4248 1.83398 16.5215 4.09375 22.5361l11.9004 31.8008v47.5996l-32 -20v64c0 35.3281 28.6719 64 64 64h240l35.3604 73c4.83301 9.93945 17.7256 18.0068 28.7783 18.0068c2.40625 0 6.24219 -0.522461 8.56152 -1.16699zM416 272c8.83203 0 16 7.16797 16 16
s-7.16797 16 -16 16s-16 -7.16797 -16 -16s7.16797 -16 16 -16z"/>
			<glyph glyph-name="deer-rudolph-primary" unicode="&#xf78f;"
				   d="M456.7 314.7c12.8232 -3.66504 23.2617 -17.4639 23.2998 -30.7998v-27.9004c0 -17.6641 -14.3359 -32 -32 -32h-64l-32 -64v-208c0 -8.83203 -7.16797 -16 -16 -16h-64c-8.83203 0 -16 7.16797 -16 16v144h-125.3l-19.4004 -51.7002l26.2998 -88.3994
c0.266602 -1.06055 0.483398 -2.80762 0.483398 -3.90039c0 -8.82227 -7.16016 -15.9902 -15.9834 -16h-63.7998c-6.87891 0.0078125 -13.8232 5.42871 -15.5 12.0996l-24.8994 82.5c-1.0459 4.2041 -1.89453 11.1318 -1.89453 15.4639
c0 6.4248 1.83398 16.5215 4.09375 22.5361l11.9004 31.8008v47.5996l-32 -20v64c0 35.3281 28.6719 64 64 64h208l35.3604 73c4.83301 9.93945 17.7256 18.0068 28.7783 18.0068c2.40625 0 6.24219 -0.522461 8.56152 -1.16699zM384 272c8.83203 0 16 7.16797 16 16
s-7.16797 16 -16 16s-16 -7.16797 -16 -16s7.16797 -16 16 -16z"/>
			<glyph glyph-name="dreidel-primary" unicode="&#xf792;" horiz-adv-x="448"
				   d="M78.5 282.95l236.4 -236.4l-58.9004 -58.8994c-10.8047 -10.8398 -31.9951 -19.6436 -47.2998 -19.6504h-141.8h-0.0703125c-36.8906 0 -66.8301 29.9395 -66.8301 66.8301v0.120117v141.8v0.109375c0 15.2598 8.78027 36.3789 19.5996 47.1406z"/>
			<glyph glyph-name="dumpster-primary" unicode="&#xf793;" horiz-adv-x="576"
				   d="M24.5 403.9c1.67676 6.6709 8.62109 12.0918 15.5 12.0996h98.9004l-25.6006 -128h-97.2998c-8.82227 0.00976562 -15.9824 7.17773 -15.9824 16c0 1.09277 0.21582 2.83984 0.482422 3.90039zM145.9 288l25.5996 128h100.5v-128h-126.1zM304 416h100.5l25.5996 -128
h-126.1v128zM575.5 307.9c0.266602 -1.06055 0.482422 -2.80762 0.482422 -3.90039c0 -8.82227 -7.16016 -15.9902 -15.9824 -16h-97.2998l-25.6006 128h98.9004c6.87891 -0.0078125 13.8232 -5.42871 15.5 -12.0996z"/>
			<glyph glyph-name="dumpster-fire-primary" unicode="&#xf794;" horiz-adv-x="640"
				   d="M461.72 343.86l-11.9199 10.5898l-12.3096 61.4502h99h0.0419922c6.87012 0 13.7686 -5.41699 15.3975 -12.0908l24 -95.9297c0.0214844 -0.31543 0.0380859 -0.828125 0.0380859 -1.14453s-0.0166016 -0.830078 -0.0380859 -1.14551c-1 1 -2 2.19043 -3.09961 3.08984
l-21.3203 19l-21.3193 -19c-5.91016 -5.18945 -11.6201 -10.6895 -17.3203 -16.2793c-13.2666 15.0479 -36.1816 38.1025 -51.1504 51.46zM146 288l25.6396 127.9h100.601v-127.9h-126.24zM24.5 403.81c1.69336 6.65137 8.6377 12.0674 15.5 12.0908h99l-25.5996 -127.9
h-97.4004c-8.81934 0.0126953 -15.9775 7.18066 -15.9775 16c0 1.08691 0.213867 2.8252 0.477539 3.87988zM551.2 284.81c51.7998 -46.2002 88.8994 -121.81 88.7998 -158.409c0 -87.5 -71.5996 -158.4 -160 -158.4s-160 70.9004 -160 158.4
c0 49.2998 49.7998 130.899 120 193.6c21.6465 -19.1807 53.4551 -53.4082 71 -76.4004c10.3125 12.1377 28.3223 30.5996 40.2002 41.21zM532.6 55.4004c33.4004 24.1992 41.2002 71.0996 22.6006 107.8c-2.2998 4.5 -4.90039 9.2002 -7.7002 14l-39.7998 -47
s-62.4004 82.5 -67.1006 88.0996c-32.8994 -40.8994 -49.3994 -64.7998 -49.3994 -91.8994c0 -54.5 39.8994 -88 88.8994 -88c0.0507812 -0.000976562 0.132812 -0.000976562 0.183594 -0.000976562c15.9639 0 39.4023 7.61621 52.3164 17.001zM419.08 343.86
c-15.9922 -14.3242 -40.1611 -39.3047 -53.9502 -55.7607h-60.8604v127.9h100.601l14.4102 -71.9404z"/>
			<glyph glyph-name="ear-muffs-primary" unicode="&#xf795;" horiz-adv-x="640"
				   d="M639 113c0.508789 -2.30469 0.921875 -6.09082 0.921875 -8.45117c0 -7.65527 -3.90723 -18.6973 -8.72168 -24.6484c4.6709 -5.88086 8.46191 -16.749 8.46191 -24.2588c0 -2.53027 -0.475586 -6.58008 -1.0625 -9.04199
c-2.35156 -10.1465 -11.8047 -22.1982 -21.0996 -26.8994c0.447266 -2.19922 0.80957 -5.80469 0.80957 -8.04785c0 -7.94922 -4.08105 -19.3965 -9.10938 -25.5527c-6.80371 -7.95215 -20.8184 -14.4062 -31.2842 -14.4062
c-0.197266 0 -0.518555 0.00292969 -0.71582 0.00683594c-2.85254 -10.4062 -13.3359 -22.0098 -23.4004 -25.9004c-3.60547 -1.60938 -9.73535 -2.91504 -13.6836 -2.91504c-0.280273 0 -0.735352 0.00683594 -1.0166 0.015625h-0.00292969
c-6.60156 0 -16.4561 2.91113 -21.9971 6.5c-6.49805 -7.05176 -19.5537 -12.7744 -29.1416 -12.7744c-21.876 0 -39.6299 17.7549 -39.6299 39.6299c0 8.15625 4.33301 19.7793 9.67188 25.9443c-5.54785 6.13574 -10.1182 17.8281 -10.2002 26.0996
c0 0.0703125 -0.000976562 0.18457 -0.000976562 0.255859c0 8.06934 4.30176 19.5586 9.60156 25.6445c-5.29883 6.16602 -9.59961 17.7695 -9.59961 25.8994c0 8.13086 4.30078 19.7344 9.59961 25.9004c-5.2998 6.08594 -9.60156 17.5742 -9.60156 25.6445
c0 0.0703125 0.000976562 0.18457 0.000976562 0.255859c0.0820312 8.27148 4.65234 19.9639 10.2002 26.0996c-6.09961 7 -10.2002 15.9004 -10.2002 26c0 22.0801 17.9199 40 40 40c12.1006 0 22.6006 -5.7002 29.9004 -14.0996c10.7002 7 24.0996 9.5 36.7998 4.5
c10.0371 -4.03516 20.5205 -15.7734 23.4004 -26.2002c0.157227 0.00195312 0.414062 0.00390625 0.572266 0.00390625c10.5078 0 24.4531 -6.58789 31.127 -14.7041c4.95898 -5.97754 8.9834 -17.1328 8.9834 -24.8994c0 -2.43164 -0.44043 -6.33008 -0.983398 -8.7002
c9.44824 -4.60742 19.0352 -16.6582 21.4004 -26.9004zM151.94 224c0.0966797 0.000976562 0.254883 0.00195312 0.352539 0.00195312c21.8867 0 39.6494 -17.7637 39.6494 -39.6504c0 -8.41016 -4.57031 -20.3057 -10.2021 -26.5518
c5.54785 -6.13574 10.1172 -17.8281 10.2002 -26.0996v-0.255859c0 -8.06934 -4.30078 -19.5586 -9.60059 -25.6445c5.29883 -6.16602 9.59961 -17.7695 9.59961 -25.8994c0 -8.13086 -4.30078 -19.7344 -9.59961 -25.9004
c5.2998 -6.17871 9.60059 -17.7988 9.60059 -25.9385v-0.261719c-0.0849609 -8.20215 -4.60938 -19.8057 -10.1006 -25.8994c5.49121 -6.09473 10.0156 -17.6982 10.1006 -25.9004c0 -22.0801 -17.9209 -40 -40 -40c-9.82812 0.0419922 -23.0439 6.08984 -29.5 13.5
c-5.52539 -3.74609 -15.4258 -6.79199 -22.1006 -6.7998c-4.28809 0.0341797 -11.0078 1.33398 -15 2.89941c-9.96387 4.10059 -20.4473 15.8379 -23.3994 26.2002c-0.158203 -0.00195312 -0.415039 -0.00390625 -0.572266 -0.00390625
c-10.5088 0 -24.4541 6.58789 -31.1279 14.7041c-4.94824 5.92773 -8.96387 17.0068 -8.96387 24.7285c0 2.39551 0.431641 6.23535 0.963867 8.57129c-12.3262 6.01953 -22.3311 22.0371 -22.3311 35.7549c0 7.66016 3.86719 18.7461 8.63086 24.7451
c-4.62793 5.96387 -8.38379 16.9307 -8.38379 24.4805c0 13.627 9.89355 29.6289 22.084 35.7197c-0.47168 2.23926 -0.854492 5.91504 -0.854492 8.2041c0 21.9746 17.835 39.8096 39.8096 39.8096c0.288086 0 0.756836 -0.00585938 1.04492 -0.0136719
c3.09473 10.3486 13.7129 22.0859 23.7002 26.2002c12.5996 4.89941 25.7998 2.5 36.3994 -4.40039c6.44141 7.51562 19.7021 13.6533 29.6006 13.7002z"/>
			<glyph glyph-name="ethernet-primary" unicode="&#xf796;"
				   d="M192 0v128h32v-128h-32zM96 0v128h32v-128h-32zM288 0v128h32v-128h-32zM384 128h32v-128h-32v128z"/>
			<glyph glyph-name="fireplace-primary" unicode="&#xf79a;" horiz-adv-x="640"
				   d="M624 448c8.83203 0 16 -7.16797 16 -16v-64c0 -8.83203 -7.16797 -16 -16 -16h-608c-8.83203 0 -16 7.16797 -16 16v64c0 8.83203 7.16797 16 16 16h608zM32 -64v384h576v-384h-96v128c0 106 -86 192 -192 192s-192 -86 -192 -192v-128h-96z"/>
			<glyph glyph-name="frosty-head-primary" unicode="&#xf79b;" horiz-adv-x="384"
				   d="M368 208c8.83203 0 16 -7.16797 16 -16v-16c0 -8.83203 -7.16797 -16 -16 -16h-352c-8.83203 0 -16 7.16797 -16 16v16c0 8.83203 7.16797 16 16 16h352zM320 432v-192h-256v192c0 8.83203 7.16797 16 16 16h224c8.83203 0 16 -7.16797 16 -16z"/>
			<glyph glyph-name="gifts-primary" unicode="&#xf79c;" horiz-adv-x="640"
				   d="M240.6 253.88c-26.7236 -6.625 -48.4961 -34.3467 -48.5996 -61.8799v-224c0.0644531 -9.49707 4.05176 -23.833 8.90039 -32h-168.9c-17.6641 0 -32 14.3359 -32 32v352c0 17.6641 14.3359 32 32 32h224c11.0996 -0.0507812 23.9131 -8.25781 28.5996 -18.3203
c-26.6992 -18.5996 -42.0996 -49 -44 -79.7998zM456 104h184v-48h-184v-120h-48v120h-184v48h184v88h-65.8799h-0.0947266c-13.918 0 -33.7891 7.35156 -44.3555 16.4102h-0.0498047l-0.0605469 0.0595703l-0.199219 0.169922l-0.200195 0.180664
c-13.8887 12.0635 -25.1611 36.7842 -25.1611 55.1807c0 0.0800781 0.000976562 0.208984 0.000976562 0.289062c0.0146484 14.1016 7.05273 34.5791 15.71 45.71c5.39648 6.94336 16.1797 15.7285 24.0703 19.6104c8.30469 4.05762 22.5469 7.35156 31.791 7.35156
c0.145508 0 0.382812 -0.000976562 0.52832 -0.00195312c29.3301 0 50.5303 -18.5996 63.1504 -34.2002c11.5195 -14.2402 19.75 -30.2998 24.75 -41.7598c5 11.4004 13.1797 27.3799 24.6797 41.6504c12.6504 15.6699 33.8799 34.3496 63.2207 34.3496
c0.106445 0.000976562 0.280273 0.000976562 0.387695 0.000976562c9.28906 0 23.5947 -3.32422 31.9316 -7.4209c7.8877 -3.87402 18.6709 -12.6465 24.0703 -19.5801c8.65723 -11.1309 15.6953 -31.6084 15.71 -45.71
c0 -0.0927734 0.000976562 -0.242188 0.000976562 -0.333984c0 -18.4141 -11.29 -43.1514 -25.2012 -55.2158l-0.200195 -0.180664l-0.199219 -0.169922l-0.0703125 -0.0595703h-0.0498047c-10.5537 -9.01465 -30.3828 -16.3301 -44.2627 -16.3301h-0.137695h-65.8799v-88z
M519.9 288.65c-18.7002 0 -35.7002 -27.8906 -44.5 -48.3203h46.4795c0.046875 0 0.121094 -0.000976562 0.167969 -0.000976562c4.09277 0 9.95801 2.1377 13.0918 4.77051l0.0605469 0.0605469c4.85742 4.09863 8.80078 12.583 8.80078 18.9395
c0 0.0527344 -0.000976562 0.137695 -0.000976562 0.19043c0 9.75977 -6.40039 24.3604 -24.0996 24.3604zM342.12 240.33h46.4795c-8.89941 20.7402 -25.7998 48.3203 -44.5 48.3203c-17.6992 0 -24.0996 -14.6006 -24.0996 -24.3604
c0 -0.0527344 -0.000976562 -0.137695 -0.000976562 -0.19043c0 -6.35645 3.94336 -14.8408 8.80078 -18.9395l0.0605469 -0.0605469c3.13379 -2.63281 8.99902 -4.77051 13.0918 -4.77051c0.046875 0 0.121094 0.000976562 0.167969 0.000976562z"/>
			<glyph glyph-name="gingerbread-man-primary" unicode="&#xf79d;" horiz-adv-x="416"
				   d="M208 208c-8.83203 0 -16 7.16797 -16 16s7.16797 16 16 16s16 -7.16797 16 -16s-7.16797 -16 -16 -16zM208 176c8.83203 0 16 -7.16797 16 -16s-7.16797 -16 -16 -16s-16 7.16797 -16 16s7.16797 16 16 16zM208 112c8.83203 0 16 -7.16797 16 -16s-7.16797 -16 -16 -16
s-16 7.16797 -16 16s7.16797 16 16 16z"/>
			<glyph glyph-name="glass-champagne-primary" unicode="&#xf79e;" horiz-adv-x="256"
				   d="M216 -16c22.0801 0 40 -17.9199 40 -40c0 -4.41602 -3.58398 -8 -8 -8h-240c-4.41602 0 -8 3.58398 -8 8c0 22.0801 17.9199 40 40 40h56v116.3c-60.7002 15.2002 -103.3 72 -95 135.4l27 184.899c2.22656 15.125 16.4404 27.4004 31.7285 27.4004h0.00195312h136.6
c15.2598 -0.0273438 29.4482 -12.3027 31.6699 -27.4004l27 -184.899c8.2998 -63.4004 -34.2998 -120.2 -95 -135.4v-116.3h56zM74.7002 187.18c25.5195 -35.6494 81.0303 -35.8096 106.67 0c5.90527 8.10352 10.6982 22.8184 10.6982 32.8457
c0 1.93262 -0.196289 5.05664 -0.438477 6.97461l-22.9297 157h-81.3301l-22.9297 -157c-0.244141 -1.9248 -0.442383 -5.06152 -0.442383 -7.00195c0 -10.0205 4.79395 -24.7236 10.7021 -32.8184z"/>
			<glyph glyph-name="glass-cheers-primary" unicode="&#xf79f;" horiz-adv-x="640"
				   d="M639.39 14.4102c0.331055 -0.805664 0.598633 -2.16504 0.598633 -3.03613c0 -2.93262 -2.19434 -6.23633 -4.89844 -7.37402l-162.39 -67.3799c-0.806641 -0.342773 -2.17285 -0.620117 -3.0498 -0.620117v0c-2.92969 0.0126953 -6.22266 2.2168 -7.35059 4.91992
c-1.68945 4.06738 -3.06152 10.9434 -3.06152 15.3477c0 14.7402 11.0488 31.29 24.6621 36.9424l22.0996 9.2002l-39.2998 103.609c-4.40039 -0.5 -8.7998 -1.2998 -13.1006 -1.2998c-51.6992 0 -99.3896 33.0898 -113.39 85.2803l-20.21 75.3701l-20.1904 -75.3896
c-14 -52.1904 -61.6992 -85.2803 -113.399 -85.2803c-4.2998 0 -8.7002 0.799805 -13.1006 1.2998l-39.3994 -103.59l22.0898 -9.2002c13.6064 -5.67578 24.6494 -22.248 24.6494 -36.9902c0 -4.39258 -1.36133 -11.251 -3.03906 -15.3096
c-1.10059 -2.71484 -4.37109 -4.91895 -7.30078 -4.91992c-0.888672 0.000976562 -2.27832 0.279297 -3.09961 0.620117l-162.29 67.3896c-2.72363 1.12988 -4.93359 4.44043 -4.93359 7.38867c0 0.897461 0.28418 2.2959 0.633789 3.12109
c5.60547 13.623 22.1113 24.6797 36.8428 24.6797c4.4082 0 11.2891 -1.37988 15.3574 -3.0791l22.0996 -9.2002l38.7002 101.88c-47.9004 34.9004 -64.7002 100.19 -34.5 152.68l86.5898 150.48c5.10059 8.85254 17.5332 16.043 27.75 16.0498h0.00390625
c3.5166 0 9.00293 -1.10254 12.2461 -2.45996l114.29 -47.3896l114.3 47.3896c3.24219 1.33496 8.71875 2.41895 12.2246 2.41895c10.2129 0 22.6562 -7.17188 27.7754 -16.0088l86.6006 -150.48c30.29 -52.4893 13.3896 -117.779 -34.5 -152.779l38.6992 -101.881
l22.0908 9.2002c4.06738 1.7002 10.9482 3.0791 15.3574 3.0791c14.7305 0 31.2363 -11.0557 36.8418 -24.6787zM239.39 205.88l36.1299 141.21l-68.9492 28.7598l-75 -125c-3.74707 -6.52734 -6.78809 -17.9346 -6.78809 -25.4619
c0 -3.33496 0.630859 -8.67383 1.4082 -11.918c9.0293 -39.2393 56.0195 -59.0098 90.4199 -37.7197c9.58887 5.81934 19.7939 19.3174 22.7793 30.1299zM514 213.47c0.780273 3.24902 1.41406 8.59863 1.41406 11.9404c0 7.50977 -3.03027 18.8936 -6.76367 25.4102
l-74.9502 125l-68.9404 -28.7607l36.04 -141.18c2.98633 -10.8086 13.1865 -24.3066 22.7705 -30.1299c34.4297 -21.2803 81.4297 -1.51953 90.4297 37.7197z"/>
			<glyph glyph-name="glass-whiskey-primary" unicode="&#xf7a0;"
				   d="M442.63 352h-373.21l50.1797 -319.12l0.0703125 -0.439453l0.0605469 -0.400391h273.06v0.30957l0.0703125 0.430664zM480 416c17.6641 0 31.999 -14.3359 31.999 -32c0 -1.25098 -0.142578 -3.27148 -0.319336 -4.50977l-55.5693 -356.58
c-4.37793 -30.3047 -32.7812 -54.9043 -63.4004 -54.9102h-273h-0.0390625c-30.6201 0 -59.002 24.5996 -63.3506 54.9102l-56 356.58c-0.176758 1.23828 -0.319336 3.25879 -0.319336 4.50977c0 17.6641 14.335 32 31.999 32h448z"/>
			<glyph glyph-name="glass-whiskey-rocks-primary" unicode="&#xf7a1;"
				   d="M442.63 352h-373.21l50.1797 -319.12l0.0703125 -0.439453l0.0605469 -0.400391h273.06v0.30957l0.0703125 0.430664zM480 416c17.6641 0 31.999 -14.3359 31.999 -32c0 -1.25098 -0.142578 -3.27148 -0.319336 -4.50977l-55.5693 -356.58
c-4.37793 -30.3047 -32.7812 -54.9043 -63.4004 -54.9102h-273h-0.0390625c-30.6201 0 -59.002 24.5996 -63.3506 54.9102l-56 356.58c-0.176758 1.23828 -0.319336 3.25879 -0.319336 4.50977c0 17.6641 14.335 32 31.999 32h448z"/>
			<glyph glyph-name="globe-snow-primary" unicode="&#xf7a3;" horiz-adv-x="448"
				   d="M134.1 96c-14.1992 0 -22 15 -12.8994 24.9004l65.5 71.0996h-30.1006c-10.6992 0 -16.5 11.2002 -9.69922 18.7002l67.3994 73.2002c2.17676 2.27637 6.5 4.125 9.65039 4.125c3.14941 0 7.47266 -1.84863 9.64941 -4.125l67.4004 -73.2002
c6.7998 -7.40039 1 -18.7002 -9.7002 -18.7002h-30.0996l65.5 -71.0996c9.09961 -9.90039 1.2998 -24.9004 -12.9004 -24.9004h-57.7998v-32h-64v32h-57.9004zM431.4 -39.0996c1.49219 -2.23047 2.70312 -6.21777 2.70312 -8.90039c0 -8.83203 -7.16797 -16 -16 -16
h-0.00390625h-388.199h-0.00390625c-8.83203 0 -16 7.16797 -16 16c0 2.68262 1.21094 6.66992 2.70312 8.90039l47.4004 71.0996h320z"/>
			<glyph glyph-name="grip-lines-primary" unicode="&#xf7a4;"
				   d="M512 272v-32c0 -8.83203 -7.16797 -16 -16 -16h-480c-8.83203 0 -16 7.16797 -16 16v32c0 8.83203 7.16797 16 16 16h480c8.83203 0 16 -7.16797 16 -16z"/>
			<glyph glyph-name="hat-santa-primary" unicode="&#xf7a7;" horiz-adv-x="640"
				   d="M480 64c17.6641 0 32 -14.3359 32 -32v-32c0 -17.6641 -14.3359 -32 -32 -32h-448c-17.6641 0 -32 14.3359 -32 32v32c0 17.6641 14.3359 32 32 32h448zM640 208c0 -12.0996 -8.2002 -21.9004 -19.2002 -25.2002c5.5 -10.0996 4.40039 -22.7998 -4.2002 -31.3994
c-4.33105 -4.29688 -12.7988 -7.79102 -18.8994 -7.80078c-4.2998 0 -8.5 1.5 -12.5 3.60059c-3.2998 -11 -13.1006 -19.2002 -25.2002 -19.2002s-21.9004 8.2002 -25.2002 19.2002c-3.3291 -1.99023 -9.17969 -3.60645 -13.0586 -3.60645
c-5.97949 0 -14.1963 3.49707 -18.3408 7.80664c-8.60059 8.59961 -9.7002 21.2998 -4.2002 31.3994c-11 3.2998 -19.2002 13.1006 -19.2002 25.2002s8.2002 21.9004 19.2002 25.2002c-5.5 10.0996 -4.40039 22.7998 4.2002 31.3994
c8.59961 8.60059 21.2998 9.7002 31.3994 4.2002c3.2998 11 13.1006 19.2002 25.2002 19.2002s21.9004 -8.2002 25.2002 -19.2002c10.0996 5.5 22.7998 4.40039 31.3994 -4.2002c8.60059 -8.59961 9.7002 -21.2998 4.2002 -31.3994
c11 -3.2998 19.2002 -13.1006 19.2002 -25.2002z"/>
			<glyph glyph-name="hat-winter-primary" unicode="&#xf7a8;"
				   d="M195.2 342.8c-11 3.2998 -19.2002 13.1006 -19.2002 25.2002s8.2002 21.9004 19.2002 25.2002c-5.5 10.0996 -4.40039 22.7998 4.2002 31.3994c8.59961 8.60059 21.2998 9.7002 31.3994 4.2002c3.2998 11 13.1006 19.2002 25.2002 19.2002
s21.9004 -8.2002 25.2002 -19.2002c10.0996 5.5 22.7998 4.40039 31.3994 -4.2002c8.60059 -8.59961 9.7002 -21.2998 4.2002 -31.3994c11 -3.2998 19.2002 -13.1006 19.2002 -25.2002s-8.2002 -21.9004 -19.2002 -25.2002c5.5 -10.0996 4.40039 -22.7998 -4.2002 -31.3994
c-4.33105 -4.29688 -12.7988 -7.79102 -18.8994 -7.80078c-4.2998 0 -8.5 1.5 -12.5 3.60059c-3.2998 -11 -13.1006 -19.2002 -25.2002 -19.2002s-21.9004 8.2002 -25.2002 19.2002c-3.3291 -1.99023 -9.17969 -3.60645 -13.0586 -3.60645
c-5.97949 0 -14.1963 3.49707 -18.3408 7.80664c-8.60059 8.59961 -9.7002 21.2998 -4.2002 31.3994zM465.7 118.9c14.0996 -48.7002 14.2998 -86.9004 14.2998 -86.9004h-448s0.200195 38.2002 14.2998 86.9004l17.7002 -8.80078l64 32l64 -32l64 32l64 -32l64 32l64 -32z
"/>
			<glyph glyph-name="holly-berry-primary" unicode="&#xf7aa;" horiz-adv-x="448"
				   d="M144.06 352c26.4961 0 48 -21.5039 48 -48s-21.5039 -48 -48 -48c-26.4951 0 -48 21.5039 -48 48s21.5049 48 48 48zM304.06 352c26.4961 0 48 -21.5039 48 -48s-21.5039 -48 -48 -48c-26.4951 0 -48 21.5039 -48 48s21.5049 48 48 48zM272.06 400
c0 -26.4961 -21.5039 -48 -48 -48c-26.4951 0 -48 21.5039 -48 48s21.5049 48 48 48c26.4961 0 48 -21.5039 48 -48z"/>
			<glyph glyph-name="ice-skate-primary" unicode="&#xf7ac;" horiz-adv-x="576"
				   d="M78.4004 365.3l177.6 50.7002v16c0 8.83203 7.16797 16 16 16h32c8.83203 0 16 -7.16797 16 -16v-80h-56c-4.41602 0 -8 -3.58398 -8 -8v-16c0 -4.41602 3.58398 -8 8 -8h56v-32h-56c-4.41602 0 -8 -3.58398 -8 -8v-16c0 -4.41602 3.58398 -8 8 -8h56l119.3 -29.9004
c40.1182 -10.0361 72.6875 -51.7451 72.7002 -93.0996v-37c0 -17.6641 -14.3359 -32 -32 -32h-416c-17.6641 0 -32 14.3359 -32 32v207.8c0.0136719 26.626 20.8008 54.1777 46.4004 61.5z"/>
			<glyph glyph-name="icicles-primary" unicode="&#xf7ad;"
				   d="M480 448c17.6143 -0.0498047 31.9102 -14.3857 31.9102 -32v-0.0498047c-0.00683594 -1.62891 -0.25293 -4.24902 -0.549805 -5.85059l-87.5 -467.699c-1.7002 -8.60059 -14 -8.60059 -15.7002 0l-86.2197 467.8c-0.292969 1.58691 -0.530273 4.18555 -0.530273 5.7998
c0 17.6641 14.3359 32 32 32v0h126.59z"/>
			<glyph glyph-name="igloo-primary" unicode="&#xf7ae;" horiz-adv-x="576"
				   d="M320 414.1v-126.1h-271.4c47.1104 70.6562 154.267 128 239.188 128h0.211914c8.8623 -0.0214844 23.1982 -0.873047 32 -1.90039zM96 256v-128h-96c0.0341797 37.2998 13.6084 94.6436 30.2998 128h65.7002zM352 408.6c61.6572 -14.0195 140.236 -68.0479 175.4 -120.6
h-175.4v120.6zM480 128v128h65.7002c16.6914 -33.3564 30.2656 -90.7002 30.2998 -128h-96zM416 64c0 11.0996 -1.90039 21.7002 -4.5 32h164.5v-96c0 -17.6641 -14.3359 -32 -32 -32h-128v96zM448 256v-128h-49.7998c-22.2002 38.0996 -63 64 -110.2 64
s-88 -25.9004 -110.2 -64h-49.7998v128h320zM0 0v96h164.5c-2.59961 -10.2998 -4.5 -20.9004 -4.5 -32v-96h-128c-17.6641 0 -32 14.3359 -32 32z"/>
			<glyph glyph-name="mistletoe-primary" unicode="&#xf7b4;" horiz-adv-x="576"
				   d="M373.23 416c23.5156 0 42.6553 -19.085 42.6992 -42.5996v-0.0507812c0 -23.542 -19.1064 -42.6494 -42.6494 -42.6494s-42.6504 19.1074 -42.6504 42.6494c0 23.5156 19.085 42.623 42.6006 42.6504zM213.23 181c23.5156 0 42.6553 -19.085 42.6992 -42.5996v-0.0507812
c0 -23.542 -19.1064 -42.6494 -42.6494 -42.6494s-42.6504 19.1074 -42.6504 42.6494c0 23.5156 19.085 42.623 42.6006 42.6504z"/>
			<glyph glyph-name="mitten-primary" unicode="&#xf7b5;" horiz-adv-x="448"
				   d="M433.12 151l-72.5 -87h-309l-47.9004 207.58c-2.03711 8.82422 -3.69043 23.3369 -3.69043 32.3945c0 63.2197 49.9922 126.077 111.591 140.306c77.3994 17.8994 154.8 -30.5 172.8 -108l29.5801 -128.4l20.9004 25c10.5928 13.0225 32.8135 23.5908 49.6006 23.5908
c35.2949 0 63.9395 -28.6455 63.9395 -63.9404c0 -13.0312 -6.87207 -31.6455 -15.3408 -41.5498z"/>
			<glyph glyph-name="mug-hot-primary" unicode="&#xf7b6;"
				   d="M400 256c61.8242 0 112 -50.1758 112 -112s-50.1758 -112 -112 -112h-16c0 -52.9922 -43.0078 -96 -96 -96h-192c-52.9922 0 -96 43.0078 -96 96v192c0 17.6641 14.3359 32 32 32h368zM400 96c26.4961 0 48 21.5039 48 48s-21.5039 48 -48 48h-16v-96h16z"/>
			<glyph glyph-name="ornament-primary" unicode="&#xf7b8;" horiz-adv-x="384"
				   d="M192 -64c-71 0 -132.9 38.7002 -166.1 96h332.199c-33.1992 -57.2998 -95.0996 -96 -166.1 -96zM288 294.18c24.4863 -14.2363 55.8916 -45.6768 70.0996 -70.1797h-332.199c14.208 24.5029 45.6133 55.9434 70.0996 70.1797v41.8203c0 8.83203 7.16797 16 16 16h160
c8.83203 0 16 -7.16797 16 -16v-41.8203z"/>
			<glyph glyph-name="restroom-primary" unicode="&#xf7bd;" horiz-adv-x="640"
				   d="M623.3 93.5c3.7002 -15.0996 -8.2998 -29.5 -24.5 -29.5h-54.7998v-104v-0.0605469c0 -13.2148 -10.7246 -23.9395 -23.9395 -23.9395h-0.0605469h-48h-0.0605469c-13.2148 0 -23.9395 10.7246 -23.9395 23.9395v0.0605469v104h-54.7998
c-16.2002 0 -28.2002 14.4004 -24.7002 29.5l45.5996 185.8c3.30078 13.5 15.5 23 29.8008 24.2002c13.0771 -8.55371 36.373 -15.4951 52 -15.4951c15.626 0 38.9219 6.94141 52 15.4951c14.2998 -1.2002 26.5 -10.7002 29.7998 -24.2002zM164.1 303.6
c24.2031 -1.99023 43.8701 -23.3154 43.9004 -47.5996v-136v-0.0605469c0 -13.2148 -10.7246 -23.9395 -23.9395 -23.9395h-0.0605469h-8v-136v-0.0605469c0 -13.2148 -10.7246 -23.9395 -23.9395 -23.9395h-0.0605469h-80h-0.0605469
c-13.2148 0 -23.9395 10.7246 -23.9395 23.9395v0.0605469v136h-8h-0.0605469c-13.2148 0 -23.9395 10.7246 -23.9395 23.9395v0.0605469v136c0.0302734 24.2842 19.6973 45.6094 43.9004 47.5996c13.0898 -8.61133 36.4307 -15.5996 52.0996 -15.5996
s39.0098 6.98828 52.0996 15.5996z"/>
			<glyph glyph-name="rv-primary" unicode="&#xf7be;" horiz-adv-x="640"
				   d="M512 416c52.5527 0 95.5625 -42.6494 96 -95.2002c0.0996094 -18 -14.0996 -32.7998 -32 -32.7998h-192v-256h-117.52c-12.5 35.3076 -53.042 63.9639 -90.4971 63.9639c-34.2246 0 -73.4258 -25.3184 -87.5029 -56.5137l-69.7803 69.7002
c-10.3223 10.3428 -18.7002 30.5967 -18.7002 45.209v0.100586v197.54c0.0380859 35.2891 28.7109 63.9619 64 64h160v16c0 8.83203 7.16797 16 16 16h128c8.83203 0 16 -7.16797 16 -16v-16h128zM256 240v64c0 8.83203 -7.16797 16 -16 16h-128
c-8.83203 0 -16 -7.16797 -16 -16v-64c0 -8.83203 7.16797 -16 16 -16h128c8.83203 0 16 7.16797 16 16z"/>
			<glyph glyph-name="scarf-primary" unicode="&#xf7c1;"
				   d="M279.12 327.49l19.5 19.3994c-11.6055 2.74219 -30.7031 4.96777 -42.6279 4.96777c-11.6797 0 -30.3936 -2.13574 -41.7725 -4.76758l155.4 -155.09l-113.09 -113.11l-135.101 140.7c-48.5996 53.7002 -13 113.3 -11.5 115.8l43.6006 73.1006
c3.53125 5.99902 11.0576 14.0625 16.7998 18c44 29.7002 130.7 27.5996 171.3 0.0996094c5.74219 -3.93652 13.2686 -12.001 16.7998 -18l43.7002 -73.3994c7.2002 -12 33.4004 -65.6006 -13.2002 -117.301z"/>
			<glyph glyph-name="sd-card-primary" unicode="&#xf7c2;" horiz-adv-x="384"
				   d="M320 448c35.2949 -0.0332031 63.9668 -28.7051 64 -64v-384c-0.0332031 -35.2949 -28.7051 -63.9668 -64 -64h-256c-35.2949 0.0332031 -63.9668 28.7051 -64 64v320l128 128h192zM160 288v96h-48v-96h48zM240 288v96h-48v-96h48zM320 288v96h-48v-96h48z"/>
			<glyph glyph-name="shovel-snow-primary" unicode="&#xf7c3;"
				   d="M342.66 146.1c5.15137 -5.13379 9.33301 -15.2021 9.33301 -22.4756c0 -5.9834 -2.97168 -14.6807 -6.63281 -19.4141l-120.4 -155.81c-0.680664 -0.878906 -1.87695 -2.22266 -2.66992 -3c-5.13672 -5.13672 -15.2012 -9.30566 -22.4648 -9.30566
c-7.26465 0 -17.3291 4.16895 -22.4648 9.30566l-168 168c-0.822266 0.820312 -2.06836 2.23145 -2.78027 3.14941c-3.63379 4.71875 -6.58301 13.3809 -6.58301 19.3359c0 8.61133 5.53906 19.8623 12.3633 25.1143l155.899 120.31
c4.73438 3.6543 13.4307 6.62012 19.4111 6.62012c7.27539 0 17.3506 -4.17969 22.4893 -9.33008zM122.66 100.1c0.30957 0.301758 0.833984 0.777344 1.10938 1.11035l79.9004 79.9004c2.20996 2.50391 4.00391 7.24707 4.00391 10.5869c0 8.83203 -7.16797 16 -16 16
c-3.28418 0 -7.96777 -1.74121 -10.4541 -3.8877l-0.120117 -0.129883l-79.8994 -79.8994c-2.57129 -2.58398 -4.6582 -7.64062 -4.6582 -11.2861c0 -8.83203 7.16797 -16 16 -16c3.14746 0 7.67969 1.61523 10.1182 3.60547zM267.58 117.19
c3.04688 2.64062 5.52051 8.05762 5.52051 12.0898c0 8.83203 -7.16797 16 -16 16c-4.0332 0 -9.44922 -2.47266 -12.0908 -5.52051l-79.8896 -79.8994c-2.57129 -2.58496 -4.6582 -7.64062 -4.6582 -11.2861c0 -8.83203 7.16797 -16 16 -16
c3.14746 0 7.67969 1.61523 10.1182 3.60547c0.379883 0.350586 0.759766 0.720703 1.11035 1.11035z"/>
			<glyph glyph-name="skating-primary" unicode="&#xf7c5;" horiz-adv-x="448"
				   d="M360.85 283.7l-82.25 -82.2998c-0.450195 -0.333008 -1.21191 -0.826172 -1.69922 -1.10059l61 -61c7.76367 -7.74512 14.0811 -22.9326 14.0996 -33.8994v-89.4004c0 -17.6641 -14.3359 -32 -32 -32s-32 14.3359 -32 32v82.7998l-78.2002 78.2002
c-10.3496 10.3398 -18.75 30.6045 -18.75 45.2344c0 16.2432 10.0127 38 22.3506 48.5654l20.0996 17.2002h-105.5c-17.6641 0 -32 14.3359 -32 32s14.3359 32 32 32v0h204.55h0.03125c22.0801 0 40 -17.9199 40 -40c0 -9.15332 -5.25488 -21.8311 -11.7314 -28.2998z
M173.85 171.2c3.11328 -5.05371 9.02637 -12.5801 13.2002 -16.7998l30.2002 -30.2002l-91.9004 -91.9004c-5.11523 -5.18848 -15.1807 -9.40039 -22.4668 -9.40039c-0.0371094 0 -0.0966797 0 -0.132812 0.000976562c-17.6338 0.0292969 -31.9453 14.3662 -31.9453 32
c0 7.30371 4.18652 17.4287 9.3457 22.5996z"/>
			<glyph glyph-name="ski-jump-primary" unicode="&#xf7c7;"
				   d="M113.7 33.2002c-5.35156 5.18164 -9.69531 15.4326 -9.69531 22.8818c0 3.47559 1.07324 8.9043 2.39551 12.1182c60.3994 146.899 56.7998 138.899 60.1992 143.3l58.9004 76.5h-97.5c-17.6641 0 -32 14.3359 -32 32s14.3359 32 32 32h184h0.03125
c22.0801 0 40 -17.9199 40 -40c0 -9.15332 -5.25586 -21.8311 -11.7314 -28.2998l-121.399 -110.5l-44.9004 -109z"/>
			<glyph glyph-name="ski-lift-primary" unicode="&#xf7c8;"
				   d="M307.65 225.2c6.81641 -5.25195 12.3496 -16.499 12.3496 -25.1045v-0.0957031v-140.5l-64 -23.7002v123.2l-88.2002 -22.0996c-17.0996 -4.30078 -31.8994 4.19922 -39.7998 23.2998l-27.8496 68.0996c-2.33301 5.1875 -4.22656 14.0127 -4.22656 19.7002
c0 26.5107 21.5156 48.0264 48.0264 48.0264c17.1445 0 36.7676 -12.6904 43.7998 -28.3262l24.0996 -53.7002l68.3008 17c2.14648 0.554688 5.68848 1.00488 7.90625 1.00488c6.06055 0 14.8379 -3.04883 19.5938 -6.80469z"/>
			<glyph glyph-name="skiing-primary" unicode="&#xf7c9;"
				   d="M293 232.3l40.4004 -40.5c7.76855 -7.76172 14.0732 -22.9736 14.0732 -33.9561c0 -8.02832 -3.61719 -19.9648 -8.07324 -26.6436l-49.2002 -73.7998l-57.2998 29.5996l45.8994 68.7998l-75.0996 75.2002c-10.168 10.2891 -18.4199 30.3799 -18.4199 44.8447
c0 2.65234 0.322266 6.93262 0.719727 9.55566zM462.3 252.6c9.79883 -4.91992 17.752 -17.7715 17.752 -28.7363c0 -17.7744 -14.4258 -32.1992 -32.2002 -32.1992c-4.11523 0 -10.4551 1.46777 -14.1514 3.27637l-58.1006 29c-9.8125 4.88184 -20.5645 17.291 -24 27.6992
l-10.7598 29l-113.67 56.1807l81.4297 32.2793c43.6006 17.4004 76.4004 -15 84.5 -39.1992l17.1006 -51.2002z"/>
			<glyph glyph-name="skiing-nordic-primary" unicode="&#xf7ca;" horiz-adv-x="576"
				   d="M186.2 115.8c6.48145 -9.43457 19.6973 -21.8887 29.5 -27.7998l22 -13l-43.1006 -91h-70.8994zM448 224c17.6641 0 32 -14.3359 32 -32s-14.3359 -32 -32 -32h-54c-16.4805 0.0791016 -35.7891 12.1299 -43.0996 26.9004l-20.3008 41.3994l-31.2998 -78.2998
l61.2002 -36.0996c12.915 -7.76172 23.3965 -26.2891 23.3965 -41.3574c0 -3.66797 -0.804688 -9.51172 -1.79688 -13.043l-23.5996 -75.5h-67l25.5 81.2002l-85 50.2002c-17.3516 10.293 -31.4336 35.0215 -31.4336 55.1973c0 7.23145 2.2998 18.499 5.13379 25.1523
l37.5 87.4004l-14.7002 4.39941c-7.90039 1.90039 -17.5996 -0.200195 -25.2998 -6.09961l-36.4902 -28c-5.20605 -5.22949 -15.4199 -9.47461 -22.7988 -9.47461c-17.7578 0 -32.1699 14.4131 -32.1699 32.1709c0 8.83105 5.71582 20.3242 12.7588 25.6533l39.7002 30.4004
c14.2324 10.9209 40.3438 19.7852 58.2842 19.7852c6.30273 0 16.3896 -1.20312 22.5156 -2.68555l71.2002 -21.2002c26.2998 -6.69922 49.2998 -25.3994 61.7998 -50.8994l26.0996 -53.2002h43.9004z"/>
			<glyph glyph-name="sledding-primary" unicode="&#xf7cb;"
				   d="M384.1 160v-96c0 -7.5 -3 -14 -7.19922 -19.4004l-56.9004 29.4004v54h-104.53l-54.7695 28.2998c-0.173828 1.22852 -0.31543 3.23242 -0.31543 4.47266c0 3.2627 0.948242 8.38184 2.11523 11.4277c1.30469 3.26758 4.39648 7.92676 6.90039 10.3994l73.3994 73.4004
h-82.7998c-17.6641 0 -32 14.3359 -32 32s14.3359 32 32 32h153.5c26.4502 -0.0449219 47.918 -21.5488 47.918 -48c0 -10.9561 -6.28027 -26.1436 -14.0176 -33.9004l-46.1006 -46.0996h50.7998c17.6641 0 32 -14.3359 32 -32z"/>
			<glyph glyph-name="sleigh-primary" unicode="&#xf7cc;" horiz-adv-x="640"
				   d="M0 384c0 17.6641 14.3359 32 32 32h20.7002c59.2236 -0.0283203 128.798 -43.0361 155.3 -96c26.4873 -52.9863 96.0615 -95.9951 155.3 -96h20.7002c35.2949 0.0332031 63.9668 28.7051 64 64v64h96c17.6641 0 32 -14.3359 32 -32s-14.3359 -32 -32 -32v-96
c0 -52.9922 -43.0078 -96 -96 -96v-48h-64v48h-192v-48h-64v52.5c-55.0996 14.2998 -96 63.9004 -96 123.5v128c-17.6641 0 -32 14.3359 -32 32z"/>
			<glyph glyph-name="sms-primary" unicode="&#xf7cd;"
				   d="M397.3 210.7c7.26172 -6.05664 13.2197 -18.6455 13.2998 -28.1006c0.100586 -21.2998 -18.8994 -38.5996 -42.2998 -38.5996h-12.2998c-4.41602 0 -8 3.58398 -8 8v16c0 4.41602 3.58398 8 8 8h12.2998c6 0 10.4004 3.5 10.4004 6.59961
c-0.107422 1.30957 -1.04883 3.0127 -2.10059 3.80078l-21.8994 18.7998c-7.26172 6.05566 -13.2197 18.6445 -13.2998 28.0996c0 21.2998 19 38.6006 42.3994 38.6006h12.2002c4.41602 0 8 -3.58398 8 -8v-16c0 -4.41602 -3.58398 -8 -8 -8h-12.2998
c-6 0 -10.4004 -3.5 -10.4004 -6.60059c0.107422 -1.30957 1.04883 -3.01172 2.10059 -3.7998zM304 272c8.83203 0 16 -7.16797 16 -16v-104c0 -4.41602 -3.58398 -8 -8 -8h-16c-4.41602 0 -8 3.58398 -8 8v68.2002l-24.7998 -55.7998
c-1.22266 -2.43555 -4.42578 -4.41211 -7.15039 -4.41211s-5.92773 1.97656 -7.14941 4.41211l-24.9004 55.7998v-68.2002c0 -4.41602 -3.58398 -8 -8 -8h-16c-4.41602 0 -8 3.58398 -8 8v104c0 8.83203 7.16797 16 16 16h16h0.0605469
c5.43164 0 11.8105 -3.94238 14.2393 -8.7998l17.7002 -35.4004l17.7002 35.4004c2.44727 4.85742 8.84863 8.7998 14.2881 8.7998h0.0117188h16zM157.3 210.7c7.26172 -6.05664 13.2197 -18.6455 13.2998 -28.1006c0.100586 -21.2998 -19 -38.5996 -42.3994 -38.5996
h-12.2002c-4.41602 0 -8 3.58398 -8 8v16c0 4.41602 3.58398 8 8 8h12.2998c6 0 10.4004 3.5 10.4004 6.59961c-0.107422 1.30957 -1.04883 3.0127 -2.10059 3.80078l-21.8994 18.7998c-7.26172 6.05566 -13.2197 18.6445 -13.2998 28.0996
c0 21.2998 19 38.6006 42.3994 38.6006h12.2002c4.41602 0 8 -3.58398 8 -8v-16c0 -4.41602 -3.58398 -8 -8 -8h-12.2998c-6 0 -10.4004 -3.5 -10.4004 -6.60059c0.107422 -1.30957 1.04883 -3.01172 2.10059 -3.7998z"/>
			<glyph glyph-name="snowboarding-primary" unicode="&#xf7ce;"
				   d="M505.45 204.8c-5.2998 -7.06543 -16.7686 -12.7998 -25.6006 -12.7998c-5.8877 0 -14.4893 2.86719 -19.1992 6.40039l-83.5 62.8994l-66 -30.5l52 -39c10.5674 -7.97168 19.1445 -25.1855 19.1445 -38.4238c0 -2.7832 -0.467773 -7.25293 -1.04492 -9.97559
l-21.9004 -102c-1.91016 -8.48535 -9.88477 -18.2959 -17.7998 -21.9004l-42.2695 15.3604c-1.82227 3.625 -3.30078 9.86133 -3.30078 13.9189c0 1.64941 0.255859 4.30176 0.570312 5.9209l19.7002 92l-60.5 45.2998v-20.5v-0.0810547
c0 -19.0527 -14.6719 -39.4004 -32.75 -45.4189l-85 -28.4004c-2.10547 -0.639648 -5.60059 -1.21289 -7.7998 -1.2793l-23.9502 8.67969c-3.34082 2.92676 -7.23828 8.70605 -8.7002 12.9004c-0.912109 2.72754 -1.65234 7.27539 -1.65234 10.1514
c0 12.7188 9.79004 26.3154 21.8525 30.3486l74.0996 24.6992v53.1006v0.174805c0 21.8047 15.8594 47.3516 35.4004 57.0254l41.2002 20.5996l-16.4004 5.5c-10.3848 3.46094 -22.7949 14.2129 -27.7002 24l-29.0996 58.0996
c-1.56934 3.4707 -2.84277 9.37793 -2.84277 13.1865c0 17.6641 14.3359 32 32 32c10.4473 0 23.0107 -7.43066 28.043 -16.5859l26.0996 -52.1006l63.7002 -21.1992c13.5947 -4.53906 33.9336 -15.2012 45.4004 -23.8008l111.399 -83.5
c7.06543 -5.29883 12.7998 -16.7676 12.7998 -25.5996c0 -5.8877 -2.86719 -14.4893 -6.39941 -19.2002z"/>
			<glyph glyph-name="snowflakes-primary" unicode="&#xf7cf;" horiz-adv-x="640"
				   d="M446 82.9502l-0.0898438 -0.150391l-15.4697 -26.7998c-2.45117 -4.28613 -8.44824 -7.76562 -13.3867 -7.76562c-2.26855 0 -5.70605 0.916992 -7.67383 2.0459l-153.38 88.5195l-0.200195 -185.8c0 -8.83203 -7.16797 -16 -16 -16h-32c-8.83203 0 -16 7.16797 -16 16
l0.100586 185.7l-153.25 -88.5c-1.9707 -1.12305 -5.41211 -2.03516 -7.67969 -2.03516c-4.93457 0 -10.9473 3.46582 -13.4209 7.73535l-15.5498 26.7998c-1.12305 1.9707 -2.03516 5.41113 -2.03516 7.67969c0 4.93457 3.46582 10.9463 7.73535 13.4199l154.46 89.2002
l-154.29 89.2002c-4.28906 2.45312 -7.76953 8.45312 -7.76953 13.3936c0 2.26562 0.914062 5.7002 2.03906 7.66602l15.5303 26.7402c2.45117 4.27441 8.44043 7.74316 13.3672 7.74316c2.25488 0 5.67383 -0.90625 7.63281 -2.02344h0.0498047l153.28 -88.5195v185.8
c0 8.83203 7.16797 16 16 16h32c8.83203 0 16 -7.16797 16 -16v-185.8l153.3 88.5c1.9707 1.12305 5.41113 2.03418 7.67969 2.03418c4.93457 0 10.9473 -3.46484 13.4209 -7.73438l15.5 -26.7998c1.12305 -1.9707 2.03418 -5.41113 2.03418 -7.67969
c0 -4.93457 -3.46484 -10.9473 -7.73438 -13.4209l-154.351 -89.0996l154.49 -89.2002c4.23828 -2.43262 7.67676 -8.37305 7.67676 -13.2598c0 -2.24316 -0.90332 -5.64355 -2.0166 -7.58984z"/>
			<glyph glyph-name="snowman-primary" unicode="&#xf7d0;"
				   d="M510.86 295.6c0.612305 -1.53418 1.10938 -4.12012 1.10938 -5.77148c0 -5.89844 -4.4668 -12.4062 -9.96973 -14.5283l-134.73 -54.5c-1.49805 13.1992 -8.24902 33.1621 -15.0693 44.5605l56.0996 22.54c0 0.5 -0.299805 1 -0.299805 1.5v46.8994
c0.129883 8.6123 7.22559 15.6006 15.8379 15.6006h0.162109h16h0.162109c8.6123 0 15.708 -6.98828 15.8379 -15.6006v-29l28.2002 11.5c1.5791 0.625 4.23926 1.13086 5.9375 1.13086c5.89648 0 12.5547 -4.4043 14.8623 -9.83105zM103.76 289.4
c-0.0429688 -0.421875 -0.176758 -1.09473 -0.299805 -1.5l56.3096 -22.6309c-6.78516 -11.3779 -13.5059 -31.2959 -15 -44.46l-134.67 54.4902c-5.53711 2.08203 -10.0312 8.57324 -10.0312 14.4902c0 1.66406 0.506836 4.26758 1.13184 5.80957l5.89941 14.5
c2.30762 5.42676 8.96582 9.83105 14.8633 9.83105c1.69824 0 4.35742 -0.505859 5.9375 -1.13086l28.0996 -11.5v29c0.129883 8.6123 7.22559 15.6006 15.8379 15.6006h0.162109h15.96c8.7998 0 16 -7 15.7998 -15.6006v-46.8994zM256 111.9c8.83203 0 16 -7.16797 16 -16
s-7.16797 -16 -16 -16s-16 7.16797 -16 16s7.16797 16 16 16zM256 175.9c8.83203 0 16 -7.16797 16 -16s-7.16797 -16 -16 -16s-16 7.16797 -16 16s7.16797 16 16 16zM256 239.9c8.83203 0 16 -7.16797 16 -16s-7.16797 -16 -16 -16s-16 7.16797 -16 16s7.16797 16 16 16z
"/>
			<glyph glyph-name="snowmobile-primary" unicode="&#xf7d1;" horiz-adv-x="640"
				   d="M465.5 32h-401.5c-23.7998 0 -39.2998 25 -28.5996 46.2002l32 64c4.84961 9.77051 17.6387 17.7002 28.5459 17.7002h0.0537109h31.0996c-11.1729 10.3643 -20.2402 31.1445 -20.2402 46.3848c0 8.34863 3.06445 21.168 6.84082 28.6152l29.7998 59.6992
c9.76758 19.5176 35.4082 35.3574 57.2324 35.3574c14.6396 0 34.9189 -8.40332 45.2676 -18.7568l55.2998 -55.2002h58.7002l13.2998 17.5996l-35.5996 71.2002c-0.928711 1.86426 -1.68262 5.06738 -1.68262 7.15039c0 8.84961 7.18262 16.0322 16.0322 16.0322
c5.47852 0 11.9072 -3.97949 14.3506 -8.88281l41.5 -83.0996l159.3 -79.7002c4.85742 -2.43359 8.7998 -8.81836 8.7998 -14.251v-0.0488281v-77.5v-0.0361328c0 -4.70996 -3.18066 -10.6523 -7.09961 -13.2637l-76.79 -51.2002c-6.6582 -4.41602 -18.5449 -8 -26.5332 -8
h-0.0771484zM288 160l24 31.9004h-10.7002h-0.03125c-14.626 0 -34.8613 8.42188 -45.1689 18.7998l-33.8994 33.8994l-25.6006 -51.0996l67 -33.5h24.4004z"/>
			<glyph glyph-name="snowplow-primary" unicode="&#xf7d2;" horiz-adv-x="640"
				   d="M120 72h0.120117c13.1816 -0.0332031 23.8799 -10.7578 23.8799 -23.9395c0 -13.2158 -10.7256 -23.9404 -23.9404 -23.9404s-23.9395 10.7246 -23.9395 23.9404c0 13.1816 10.6982 23.9062 23.8799 23.9395zM200 72h0.120117
c13.1816 -0.0332031 23.8799 -10.7578 23.8799 -23.9395c0 -13.2158 -10.7256 -23.9404 -23.9404 -23.9404s-23.9395 10.7246 -23.9395 23.9404c0 13.1816 10.6982 23.9062 23.8799 23.9395zM360 72h0.120117c13.1816 -0.0332031 23.8799 -10.7578 23.8799 -23.9395
c0 -13.2158 -10.7256 -23.9404 -23.9404 -23.9404s-23.9395 10.7246 -23.9395 23.9404c0 13.1816 10.6982 23.9062 23.8799 23.9395zM280 72h0.120117c13.1816 -0.0332031 23.8799 -10.7578 23.8799 -23.9395c0 -13.2158 -10.7256 -23.9404 -23.9404 -23.9404
s-23.9395 10.7246 -23.9395 23.9404c0 13.1816 10.6982 23.9062 23.8799 23.9395zM598.6 22.5996l36.7002 -36.6992c2.56543 -2.5918 4.64844 -7.6543 4.64844 -11.3008s-2.08301 -8.70801 -4.64844 -11.2998l-22.5996 -22.5996
c-2.5918 -2.56543 -7.65332 -4.64844 -11.2998 -4.64844s-8.70898 2.08301 -11.3008 4.64844l-36.6992 36.7002c-22.8535 22.8369 -41.4004 67.5918 -41.4004 99.8994v0v18.7002h-42.7803c-16.7568 35.3281 -62.0918 64 -101.192 64h-0.0273438h-256h-0.140625
c-13.8789 0 -35.3203 -4.8291 -47.8594 -10.7803v90.7803c0 26.4961 21.5039 48 48 48h16v112c0 26.4961 21.5039 48 48 48h144.3h0.078125c17.4746 0 37.2412 -13.0371 44.1221 -29.0996l78.2998 -182.801c2.85742 -6.66113 5.18652 -17.9512 5.2002 -25.1992v-50.9004h64
v18.7002v0c0 32.3076 18.5469 77.0625 41.4004 99.8994l36.6992 36.7002c2.5918 2.56543 7.6543 4.64844 11.3008 4.64844s8.70801 -2.08301 11.2998 -4.64844l22.5996 -22.5996c2.56543 -2.5918 4.64844 -7.65332 4.64844 -11.2998s-2.08301 -8.70898 -4.64844 -11.3008
l-36.7002 -36.6992c-12.4746 -12.4756 -22.5996 -36.9189 -22.5996 -54.5615v-0.0390625v-101.6v-0.0390625c0 -17.6426 10.125 -42.0859 22.5996 -54.5615zM256 224h122.4l-68.6006 160h-117.8v-96z"/>
			<glyph glyph-name="star-christmas-primary" unicode="&#xf7d4;"
				   d="M505.25 183.35l-192.6 -48.0996l-48.1006 -192.5c-2.2002 -9 -15 -9 -17.2002 0l-48.0996 192.5l-192.5 48.0996c-9 2.2002 -9 15 0 17.2002l192.6 48.1006l48.1006 192.6c2.2002 9 15 9 17.2002 0l48.1992 -192.6l192.5 -48.1006
c8.90039 -2.2002 8.90039 -15 -0.0996094 -17.2002z"/>
			<glyph glyph-name="tenge-primary" unicode="&#xf7d7;" horiz-adv-x="384"
				   d="M372 416c6.62402 0 12 -5.37598 12 -12v-56c0 -6.62402 -5.37598 -12 -12 -12h-360c-6.62402 0 -12 5.37598 -12 12v56c0 6.62402 5.37598 12 12 12h360z"/>
			<glyph glyph-name="toilet-primary" unicode="&#xf7d8;" horiz-adv-x="384"
				   d="M352 243.3c20.2002 -10.0996 32 -22.2002 32 -35.2998v-0.015625c0 -57.251 -38.8867 -129.148 -86.7998 -160.484l21.3994 -70.2002c0.762695 -2.50977 1.38184 -6.67676 1.38184 -9.2998c0 -17.6533 -14.3281 -31.9893 -31.9814 -32h-192
c-17.6533 0.0107422 -31.9814 14.3467 -31.9814 32c0 2.62305 0.619141 6.79004 1.38184 9.2998l21.3994 70.2002c-47.9131 31.3359 -86.7998 103.233 -86.7998 160.484v0.015625c0 13.0996 11.7998 25.2002 32 35.2998v156.7h320v-156.7zM80 376v-16
c0 -4.41602 3.58398 -8 8 -8h48c4.41602 0 8 3.58398 8 8v16c0 4.41602 -3.58398 8 -8 8h-48c-4.41602 0 -8 -3.58398 -8 -8zM192 176c77.0996 0 139.6 14.2998 139.6 32s-62.5 32 -139.6 32s-139.6 -14.2998 -139.6 -32s62.5 -32 139.6 -32z"/>
			<glyph glyph-name="tram-primary" unicode="&#xf7da;"
				   d="M192 352c-17.6641 0 -32 14.3359 -32 32s14.3359 32 32 32s32 -14.3359 32 -32s-14.3359 -32 -32 -32zM288 384c-17.6641 0 -32 14.3359 -32 32s14.3359 32 32 32s32 -14.3359 32 -32s-14.3359 -32 -32 -32zM448 224c17.6641 0 32 -14.3359 32 -32v-224
c0 -17.6641 -14.3359 -32 -32 -32h-384c-17.6641 0 -32 14.3359 -32 32v224c0 17.6641 14.3359 32 32 32h176v83.2002l32 8.5v-91.7002h176zM176 64v96h-96v-96h96zM304 64v96h-96v-96h96zM432 64v96h-96v-96h96z"/>
			<glyph glyph-name="tree-christmas-primary" unicode="&#xf7db;" horiz-adv-x="448"
				   d="M439.63 -7.59961c18.9004 -21.8008 3.7998 -56.4004 -24.7998 -56.4004h-381.7c-28.5 0 -43.7002 34.5 -24.7002 56.4004l89.7705 103.6h-36c-25.6006 0 -39.5 26.2998 -23.2002 43.5l146.2 154.5l38.7998 -54l38.8301 54l146.2 -154.5
c16.2998 -17.2002 2.39941 -43.5 -23.2002 -43.5h-36zM160 136h0.0605469c13.2148 0 23.9395 10.7246 23.9395 23.9395v0.0605469c0 13.248 -10.752 24 -24 24s-24 -10.752 -24 -24s10.752 -24 24 -24zM288 8h0.0605469c13.2148 0 23.9395 10.7246 23.9395 23.9395
v0.0605469c0 13.248 -10.752 24 -24 24s-24 -10.752 -24 -24s10.752 -24 24 -24z"/>
			<glyph glyph-name="tree-decorated-primary" unicode="&#xf7dc;" horiz-adv-x="448"
				   d="M439.63 -7.57031c18.9004 -21.8096 3.7998 -56.4297 -24.7998 -56.3994h-381.7c-28.5 0 -43.7002 34.5 -24.7002 56.3994l89.7705 103.601h-36c-25.6006 0 -39.5 29.2002 -23.2002 48.5l95 111.5h-44.7695c-21.3008 0 -32.9004 22.5 -19.3008 37.29l134.801 146.5
c10 10.8994 28.5996 10.8994 38.5996 0l134.9 -146.53c13.5996 -14.79 2 -37.29 -19.3008 -37.29h-44.7998l94.9004 -111.5c16.2998 -19.2998 2.39941 -48.5 -23.2002 -48.5h-36zM160 136h0.0605469c13.2148 0 23.9395 10.7246 23.9395 23.9395v0.0605469
c0 13.248 -10.752 24 -24 24s-24 -10.752 -24 -24s10.752 -24 24 -24zM232 288c0 -13.2207 10.7295 -24 23.9502 -24h0.0498047c13.248 0 24 10.752 24 24s-10.752 24 -24 24s-24 -10.752 -24 -24zM288 8h0.0605469c13.2148 0 23.9395 10.7246 23.9395 23.9395v0.0605469
c0 13.248 -10.752 24 -24 24s-24 -10.752 -24 -24s10.752 -24 24 -24z"/>
			<glyph glyph-name="truck-plow-primary" unicode="&#xf7de;" horiz-adv-x="640"
				   d="M598.6 54.5996l36.7002 -36.6992c2.56543 -2.5918 4.64844 -7.6543 4.64844 -11.3008s-2.08301 -8.70801 -4.64844 -11.2998l-22.5996 -22.5996c-2.5918 -2.56543 -7.65332 -4.64844 -11.2998 -4.64844s-8.70898 2.08301 -11.3008 4.64844l-36.6992 36.7002
c-23.4004 23.2998 -37 54 -40.1006 86.5996h-24.0996c-15.6631 44.126 -66.377 79.9385 -113.2 79.9385s-97.5371 -35.8125 -113.2 -79.9385h-29.5996c-15.665 44.1289 -66.3828 79.9434 -113.209 79.9434c-43.1084 0 -92.2949 -31.9746 -109.791 -71.373
c-5.63086 5.2207 -10.2002 15.6904 -10.2002 23.3691v0.0605469v96c0 17.6641 14.3359 32 32 32h96v120c0 22.0801 17.9199 40 40 40h110.9c14.998 -0.0166016 33.4561 -10.4551 41.1992 -23.2998l82 -136.7h45.9004c17.6641 0 32 -14.3359 32 -32v-64h32v50.7002v0
c0 32.3076 18.5469 77.0625 41.4004 99.8994l36.6992 36.7002c2.5918 2.56543 7.6543 4.64844 11.3008 4.64844s8.70801 -2.08301 11.2998 -4.64844l22.5996 -22.5996c2.56543 -2.5918 4.64844 -7.65332 4.64844 -11.2998s-2.08301 -8.70898 -4.64844 -11.3008
l-36.7002 -36.6992c-12.4746 -12.4697 -22.5996 -36.9062 -22.5996 -54.5449v-0.0556641v-101.6v-0.0556641c0 -17.6387 10.125 -42.0752 22.5996 -54.5449zM192 256h135.5l-57.5996 96h-77.9004v-96z"/>
			<glyph glyph-name="wreath-primary" unicode="&#xf7e2;" horiz-adv-x="448"
				   d="M448 224c0 -14.2705 -9.67676 -32.2598 -21.5996 -40.0996c4.66211 -6.77344 8.44629 -18.9443 8.44629 -27.167c0 -5.25977 -1.63379 -13.4736 -3.64648 -18.333c-6.60059 -15.9004 -20.7002 -25.8008 -36.5 -28.5c3.39941 -15.5 -0.100586 -32.2002 -12.1006 -44.2002
c-7.0752 -6.97754 -20.874 -13.0254 -30.7998 -13.5c-2.11328 24.0684 -23.4385 43.6914 -47.5996 43.7998c-4.30566 -0.0214844 -11.1152 -1.14062 -15.2002 -2.5l-1.09961 -0.400391l-1.10059 -0.399414l-62.7002 -26.1006l-62.6992 26.1006l-1.10059 0.399414
l-1.09961 0.400391c-4.02051 1.37988 -10.7344 2.50098 -14.9854 2.50098c-0.0585938 0 -0.155273 -0.000976562 -0.214844 -0.000976562h-0.118164c-24.3037 0 -45.5303 -19.667 -47.3818 -43.9004c-11.2002 0.800781 -22.2002 4.90039 -30.7998 13.5
c-12.1006 12 -15.5 28.7002 -12.1006 44.2002c-15.7998 2.7002 -29.8994 12.7002 -36.5 28.5c-2.03125 4.86523 -3.68066 13.0928 -3.68066 18.3652c0 8.2207 3.7998 20.377 8.48145 27.1348c-12.0889 7.80957 -21.8994 25.8271 -21.8994 40.2178
c0 14.4336 9.85547 32.4805 21.999 40.2822c-4.6709 6.76465 -8.46191 18.9268 -8.46191 27.1475c0 22.4082 17.9482 43.5332 40.0615 47.1523c-3.2998 15.4004 0.200195 31.9004 12.1006 43.8008c11.8994 11.8994 28.3994 15.3994 43.7998 12.0996
c3.62012 22.1143 24.7441 40.0615 47.1523 40.0615c8.2207 0 20.3828 -3.79102 27.1475 -8.46191c7.82129 12.0879 25.8525 21.8984 40.25 21.8984s32.4297 -9.81055 40.25 -21.8984c6.76465 4.6709 18.9268 8.46191 27.1475 8.46191
c22.4082 0 43.5332 -17.9473 47.1523 -40.0615c15.3008 3.2998 31.9004 -0.200195 43.8008 -12.0996c11.8994 -11.9004 15.3994 -28.4004 12.0996 -43.8008c22.1084 -3.66406 40.0518 -24.8252 40.0518 -47.2354c0 -8.22266 -3.78613 -20.3926 -8.45215 -27.1641
c12.0889 -7.79395 21.9004 -25.792 21.9004 -40.1748v-0.0253906zM301.5 197.8c2.7002 8.60059 10.5 16.7002 10.5 26.2002s-7.7998 17.5996 -10.5 26.2002c-2.7998 8.89941 -1.09961 20.0996 -6.2998 27.5996s-16.2002 9.40039 -23.2998 14.7998
c-7.10059 5.40039 -12.2002 15.6006 -20.7002 18.5c-8.2002 2.80078 -18.1006 -2.2998 -27.2002 -2.2998s-19 5.10059 -27.2002 2.2998c-8.59961 -2.89941 -13.5 -13 -20.7002 -18.5c-7.19922 -5.5 -18.0996 -7.39941 -23.2998 -14.7998
c-5.2002 -7.39941 -3.5 -18.7002 -6.2998 -27.5996c-2.7002 -8.60059 -10.5 -16.7002 -10.5 -26.2002s7.7998 -17.5996 10.5 -26.2002c2.7998 -8.89941 1.09961 -20.0996 6.2998 -27.5996s16.2002 -9.40039 23.2998 -14.7998
c7.10059 -5.40039 12.2002 -15.6006 20.7002 -18.5c8.2002 -2.80078 18.1006 2.2998 27.2002 2.2998s19 -5.10059 27.2002 -2.2998c8.59961 2.89941 13.5 13 20.7002 18.5c7.19922 5.5 18.0996 7.39941 23.2998 14.7998c5.2002 7.39941 3.5 18.7002 6.2998 27.5996z"/>
			<glyph glyph-name="gift-secondary" unicode="&#x10f06b;"
				   d="M224 128v-160h-160c-17.6641 0 -32 14.3359 -32 32v128h192zM224 288v-128h-208c-8.83203 0 -16 7.16797 -16 16v80c0 17.6641 14.3359 32 32 32h192zM480 288c17.6641 0 32 -14.3359 32 -32v-80c0 -8.83203 -7.16797 -16 -16 -16h-208v128h192zM288 -32v160h192v-128
c0 -17.6641 -14.3359 -32 -32 -32h-160z"/>
			<glyph glyph-name="signature-secondary" unicode="&#x10f5b7;" horiz-adv-x="640"
				   d="M639.77 239.79v-32.0996c0 -8.5 -6.69922 -15.1006 -15.1992 -15.8008c-39.4004 -3.19922 -105.4 -51 -138.4 -65.7998c-34.2998 -15.3994 -66.7002 -30 -102.3 -30c-28.2002 0 -50.2002 8.5 -65.5 25.2998c-22.7002 24.9004 -22.7998 55.3008 -20.6006 83.8008
c-56.5 -45.1006 -169 -153.601 -211.199 -195.801c-5.12598 -5.18262 -15.2021 -9.38965 -22.4912 -9.38965h-0.0791016c-27 0 -36.5 27 -29.7002 43.9004l98.2002 245.6c8 19.9004 -14.2998 38.7998 -32.7002 27.0996l-58 -38.8994
c-2.1748 -1.4043 -6.04102 -2.54395 -8.62988 -2.54395c-4.85254 0 -10.8877 3.33496 -13.4697 7.44336l-17.2002 27c-1.36816 2.16992 -2.47852 6.0127 -2.47852 8.57812c0 4.84375 3.30566 10.9014 7.37891 13.5225l54.8994 36.8994
c76.5 48.7002 160.101 -26.8994 129.7 -102.8l-41.5 -103.7c105.2 101.2 144.4 124.5 169.5 126c54.4004 3.10059 43.7998 -68.0996 42.7002 -76.0996c-4.7002 -35.7002 -1.2998 -51.9004 21.2998 -51.9004c21.9004 0 47 11.3008 76.0996 24.4004
c37.4004 16.7998 111.301 68 163.101 71.5c9.06934 0.589844 16.7998 -7.11035 16.5693 -16.21z"/>
			<glyph glyph-name="baby-carriage-secondary" unicode="&#x10f77d;"
				   d="M96 64c35.3281 0 64 -28.6719 64 -64s-28.6719 -64 -64 -64s-64 28.6719 -64 64s28.6719 64 64 64zM352 64c35.3281 0 64 -28.6719 64 -64s-28.6719 -64 -64 -64s-64 28.6719 -64 64s28.6719 64 64 64zM90.7998 440.39c16.7998 13.4004 42.7002 8.40039 54 -9.38965
l111.2 -175h-256c0 74 35.2998 140.09 90.7998 184.39z"/>
			<glyph glyph-name="bells-secondary" unicode="&#x10f77f;" horiz-adv-x="640"
				   d="M117.3 328.92c25.2305 69.4004 101.75 105.21 171 80.0205c8.02734 -3.01367 20.3018 -9.36133 27.4004 -14.1709c-68.7002 -39.3398 -101.601 -123.43 -73.7002 -200.34l15.5 -42.7793c22.7998 -62.7705 11.7002 -89.2402 3.2998 -108.49l-243.3 88.8398
c-22.5 8.21973 -23.0996 38.5996 -3 48.9297c21 10.7305 58.2002 24.9707 87.4004 105.28c0.699219 2.20996 14.5996 40.6104 15.3994 42.71zM543.77 37c0.12207 -1.45703 0.219727 -3.8252 0.219727 -5.28711c0 -35.1953 -28.5645 -63.7598 -63.7598 -63.7598
c-18.2607 0 -41.6152 12.1172 -52.1299 27.0469z"/>
			<glyph glyph-name="blog-secondary" unicode="&#x10f781;"
				   d="M511.9 145c0.0136719 -0.248047 0.0244141 -0.651367 0.0244141 -0.900391c0 -8.8457 -7.17871 -16.0586 -16.0244 -16.0996h-32.1006c-8.26074 0.0351562 -15.3838 6.75586 -15.8994 15c-7.5 129.5 -111.5 234.5 -240.9 241.5
c-8.28027 0.439453 -15 7.52637 -15 15.8174v0.0830078v31.5996c0.0410156 8.8457 7.25391 16.0254 16.0996 16.0254c0.249023 0 0.652344 -0.0117188 0.900391 -0.0253906c163.2 -8.62012 294.4 -139.82 302.9 -303zM209.3 352
c110.101 -8.51953 198.2 -96.6201 206.601 -206.7c0.0205078 -0.305664 0.0380859 -0.802734 0.0380859 -1.11035c0 -8.9082 -7.23047 -16.1611 -16.1387 -16.1895h-32.2002c-8.08691 0.0556641 -15.21 6.6416 -15.8994 14.7002c-6.90039 77 -68.1006 138.899 -144.9 145.2
c-8.16895 0.584961 -14.7998 7.70801 -14.7998 15.8984v0.000976562v32.1006v0.0117188c0 8.9043 7.22656 16.1309 16.1299 16.1309c0.323242 0 0.847656 -0.0195312 1.16992 -0.0429688z"/>
			<glyph glyph-name="boot-secondary" unicode="&#x10f782;"
				   d="M0 0h512v-32l-32 -32h-64l-32 32l-32 -32h-64l-32 32l-32 -32h-64l-32 32l-32 -32h-64l-32 32v32zM352 368c0 -8.83203 -7.16797 -16 -16 -16h-336v80c0 8.83203 7.16797 16 16 16h320c8.83203 0 16 -7.16797 16 -16v-64z"/>
			<glyph glyph-name="cash-register-secondary" unicode="&#x10f788;"
				   d="M296.1 216h16c8.83203 0 16 -7.16797 16 -16v-16c0 -8.83203 -7.16797 -16 -16 -16h-16c-8.83203 0 -16 7.16797 -16 16v16c0 8.83203 7.16797 16 16 16zM248.1 88c-8.83203 0 -16 7.16797 -16 16v16c0 8.83203 7.16797 16 16 16h16c8.83203 0 16 -7.16797 16 -16v-16
c0 -8.83203 -7.16797 -16 -16 -16h-16zM232.1 200v-16c0 -8.83203 -7.16797 -16 -16 -16h-16c-8.83203 0 -16 7.16797 -16 16v16c0 8.83203 7.16797 16 16 16h16c8.83203 0 16 -7.16797 16 -16zM136.1 200v-16c0 -8.83203 -7.16797 -16 -16 -16h-16
c-8.83203 0 -16 7.16797 -16 16v16c0 8.83203 7.16797 16 16 16h16c8.83203 0 16 -7.16797 16 -16zM184.1 104c0 -8.83203 -7.16797 -16 -16 -16h-16c-8.83203 0 -16 7.16797 -16 16v16c0 8.83203 7.16797 16 16 16h16c8.83203 0 16 -7.16797 16 -16v-16zM344.1 16
c4.41602 0 8 -3.58398 8 -8v-16c0 -4.41602 -3.58398 -8 -8 -8h-176c-4.41602 0 -8 3.58398 -8 8v16c0 4.41602 3.58398 8 8 8h176zM360.1 136c8.83203 0 16 -7.16797 16 -16v-16c0 -8.83203 -7.16797 -16 -16 -16h-16c-8.83203 0 -16 7.16797 -16 16v16
c0 8.83203 7.16797 16 16 16h16zM408.1 216c8.83203 0 16 -7.16797 16 -16v-16c0 -8.83203 -7.16797 -16 -16 -16h-16c-8.83203 0 -16 7.16797 -16 16v16c0 8.83203 7.16797 16 16 16h16zM144 256v64h-96c-8.83203 0 -16 7.16797 -16 16v96c0 8.83203 7.16797 16 16 16h256
c8.83203 0 16 -7.16797 16 -16v-96.0996c0 -8.83203 -7.16797 -16 -16 -16h-96v-64zM82 364h188v40h-188v-40z"/>
			<glyph glyph-name="chart-network-secondary" unicode="&#x10f78a;" horiz-adv-x="640"
				   d="M64 208c35.2949 -0.0332031 63.9668 -28.7051 64 -64c0 -35.3281 -28.6719 -64 -64 -64s-64 28.6719 -64 64s28.6719 64 64 64zM152 128v32h48v-32h-48zM446.4 234.8l48 36l19.1992 -25.5996l-48 -36zM576 384c35.2949 -0.0332031 63.9668 -28.7051 64 -64
c0 -35.3281 -28.6719 -64 -64 -64s-64 28.6719 -64 64s28.6719 64 64 64z"/>
			<glyph glyph-name="chimney-secondary" unicode="&#x10f78b;"
				   d="M160 224v-128h-128v128h128zM32 -64v128h288v-128h-288zM352 -64v128h128v-128h-128zM192 224h288v-128h-288v128z"/>
			<glyph glyph-name="compress-arrows-alt-secondary" unicode="&#x10f78c;"
				   d="M507.25 417.95c2.59277 -2.5957 4.69824 -7.68066 4.69824 -11.3506c0 -3.64648 -2.08301 -8.70801 -4.64844 -11.2998l-99.2998 -99.2998l33 -31c15.0996 -15.0996 4.40039 -41 -17 -41h-112h-0.0605469c-13.2148 0 -23.9395 10.7246 -23.9395 23.9395v0.0605469v112
c0 21.4004 25.7998 32.0996 40.9004 17l31.0996 -33l99.25 99.3496c2.59082 2.56641 7.65332 4.64844 11.2998 4.64844s8.70898 -2.08203 11.2998 -4.64844zM200 160h0.0605469c13.2148 0 23.9395 -10.7246 23.9395 -23.9395v-0.0605469v-112
c0 -21.4004 -25.7998 -32.0996 -40.9004 -17l-31.0996 33l-99.2998 -99.2998c-2.5918 -2.56543 -7.65332 -4.64844 -11.2998 -4.64844s-8.70898 2.08301 -11.3008 4.64844l-25.3994 25.3994c-2.56543 2.5918 -4.64844 7.6543 -4.64844 11.3008
s2.08301 8.70801 4.64844 11.2998l99.2002 99.2998l-32.9004 31c-15.0996 15.2002 -4.40039 41 17 41h112z"/>
			<glyph glyph-name="deer-secondary" unicode="&#x10f78e;"
				   d="M223.9 392.2v47.7998c0 4.41602 3.58398 8 8 8h16c4.41602 0 8 -3.58398 8 -8v-47.7998c0.00390625 -6.7002 5.24609 -13.5996 11.6992 -15.4004l16.1006 -4.5l16.7998 20.9004c1.93164 2.41797 3.5 6.89258 3.5 9.9873v0.0126953v36.7998c0 4.41602 3.58398 8 8 8h16
c4.41602 0 8 -3.58398 8 -8v-36.7998v-0.0205078c0 -9.28906 -4.7041 -22.7197 -10.5 -29.9795l-8.2998 -10.2998l33.7998 -9.5l42.5996 21.2998c6.3291 3.11035 14.6172 10.4131 18.5 16.2998l18 27.2002c1.29883 1.97363 4.27051 3.5752 6.63379 3.5752
c1.34961 0 3.35059 -0.616211 4.4668 -1.375l13.2998 -8.90039c1.97363 -1.29883 3.57617 -4.27051 3.57617 -6.63281c0 -1.34961 -0.617188 -3.35156 -1.37598 -4.4668l-18.1006 -27.2002c-6.49902 -9.71582 -20.2529 -21.8564 -30.6992 -27.1006l-12 -5.58984
l-19.1904 5.33008c-2.32129 0.645508 -6.16113 1.16895 -8.57031 1.16895c-11.0537 0 -23.9473 -8.06738 -28.7793 -18.0088l-2.36035 -4.82031l-78.0996 21.8203c-19.3174 5.43457 -34.998 26.1328 -35 46.2002z"/>
			<glyph glyph-name="deer-rudolph-secondary" unicode="&#x10f78f;"
				   d="M191.9 392.2v47.7998c0 4.41602 3.58398 8 8 8h16c4.41602 0 8 -3.58398 8 -8v-47.7998c0.00390625 -6.7002 5.24609 -13.5996 11.6992 -15.4004l16.1006 -4.5l16.7998 20.9004c1.93164 2.41797 3.5 6.89258 3.5 9.9873v0.0126953v36.7998c0 4.41602 3.58398 8 8 8h16
c4.41602 0 8 -3.58398 8 -8v-36.7998v-0.0205078c0 -9.28906 -4.7041 -22.7197 -10.5 -29.9795l-8.2998 -10.2998l33.7998 -9.5l42.5996 21.2998c6.3291 3.11035 14.6172 10.4131 18.5 16.2998l18 27.2002c1.29883 1.97363 4.27051 3.5752 6.63379 3.5752
c1.34961 0 3.35059 -0.616211 4.4668 -1.375l13.2998 -8.90039c1.97363 -1.29883 3.57617 -4.27051 3.57617 -6.63281c0 -1.34961 -0.617188 -3.35156 -1.37598 -4.4668l-18.1006 -27.2002c-6.49902 -9.71582 -20.2529 -21.8564 -30.6992 -27.1006l-12 -5.58984
l-19.1904 5.33008c-2.32129 0.645508 -6.16113 1.16895 -8.57031 1.16895c-11.0537 0 -23.9473 -8.06738 -28.7793 -18.0088l-2.36035 -4.82031l-78.0996 21.8203c-19.3174 5.43457 -34.998 26.1328 -35 46.2002zM480 352c17.6641 0 32 -14.3262 32 -31.9902
s-14.3359 -32 -32 -32h-0.299805c-1.52246 11.5244 -11.8271 23.4824 -23 26.6904l-8.56055 2.37988c-0.0898438 0.919922 -0.139648 1.91992 -0.139648 2.91992c0 17.6641 14.3359 32 32 32z"/>
			<glyph glyph-name="dreidel-secondary" unicode="&#x10f792;" horiz-adv-x="448"
				   d="M443.3 366l-109 -109l72 -71.9004c5.42285 -5.40039 9.82422 -15.9961 9.82422 -23.6494c0 -7.6543 -4.40137 -18.249 -9.82422 -23.6504l-68.7002 -68.7002l-236.399 236.45l68.7002 68.7002c5.40039 5.42285 15.9961 9.82324 23.6494 9.82324
c7.6543 0 18.249 -4.40039 23.6504 -9.82324l71.8994 -71.9004l109 109c2.5918 2.56641 7.6543 4.64844 11.3008 4.64844s8.70801 -2.08203 11.2998 -4.64844l22.5996 -22.5996c2.62109 -2.59277 4.74805 -7.68848 4.74805 -11.375s-2.12695 -8.78223 -4.74805 -11.375z"/>
			<glyph glyph-name="dumpster-secondary" unicode="&#x10f793;" horiz-adv-x="576"
				   d="M576 208v-32c0 -8.83203 -7.16797 -16 -16 -16h-28l-20 -160v-16c0 -8.83203 -7.16797 -16 -16 -16h-32c-8.83203 0 -16 7.16797 -16 16v16h-320v-16c0 -8.83203 -7.16797 -16 -16 -16h-32c-8.83203 0 -16 7.16797 -16 16v16l-20 160h-28c-8.83203 0 -16 7.16797 -16 16
v32c0 8.83203 7.16797 16 16 16h20l-4 32h512l-4 -32h20c8.83203 0 16 -7.16797 16 -16z"/>
			<glyph glyph-name="dumpster-fire-secondary" unicode="&#x10f794;" horiz-adv-x="640"
				   d="M288 126.4c0 -48.5 18.5996 -92.7002 48.7998 -126.4h-208.8v-16c0 -8.83203 -7.16797 -16 -16 -16h-32c-8.83203 0 -16 7.16797 -16 16v16l-20 160h-28c-8.83203 0 -16 7.16797 -16 16v32c0 8.83203 7.16797 16 16 16h20l-4 32h308.6
c-32.6992 -46.7002 -52.5996 -93.7002 -52.5996 -129.6z"/>
			<glyph glyph-name="ear-muffs-secondary" unicode="&#x10f795;" horiz-adv-x="640"
				   d="M83.4404 247.1c18.7998 113.801 117.5 200.9 236.5 200.9s217.8 -87.2002 236.5 -201c-4.27051 1.04785 -11.3037 1.94336 -15.7002 2c-5.04785 -0.0107422 -13.1123 -1.04102 -18 -2.2998c-4.31934 2.44727 -11.7109 5.49316 -16.5 6.7998
c-20.5 83.9004 -96.1006 146.5 -186.3 146.5c-90.2002 0 -165.801 -62.5996 -186.301 -146.6c-4.62793 -1.27246 -11.7959 -4.18457 -16 -6.5c-4.8877 1.25781 -12.9521 2.28906 -18 2.2998c-4.54102 -0.0380859 -11.7988 -0.978516 -16.1992 -2.10059z"/>
			<glyph glyph-name="ethernet-secondary" unicode="&#x10f796;"
				   d="M512 240v-224c0 -8.83203 -7.16797 -16 -16 -16h-80v128h-32v-128h-64v128h-32v-128h-64v128h-32v-128h-64v128h-32v-128h-80c-8.83203 0 -16 7.16797 -16 16v224c0 8.83203 7.16797 16 16 16h48v48c0 8.83203 7.16797 16 16 16h48v48c0 8.83203 7.16797 16 16 16h224
c8.83203 0 16 -7.16797 16 -16v-48h48c8.83203 0 16 -7.16797 16 -16v-48h48c8.83203 0 16 -7.16797 16 -16z"/>
			<glyph glyph-name="fireplace-secondary" unicode="&#x10f79a;" horiz-adv-x="640"
				   d="M371.2 166.4c37.2998 -33.6006 64 -88.6006 64 -115.2c0 -63.5908 -51.6094 -115.2 -115.2 -115.2s-115.2 51.6094 -115.2 115.2c0 35.7998 35.9004 95.2002 86.4004 140.8c15.5938 -13.9756 38.4863 -38.8848 51.0996 -55.5996
c7.37891 8.85547 20.3262 22.2949 28.9004 30zM357.8 -0.5c24.1006 17.5996 29.7002 51.7998 16.2998 78.4004c-1.59961 3.2998 -3.5 6.69922 -5.5 10.1992l-28.6992 -34.1992s-44.9004 60 -48.3008 64.0996c-23.6992 -29.7002 -35.5996 -47.0996 -35.5996 -66.7998
c0 -39.6006 28.7002 -64 64 -64h0.00390625c11.5371 0 28.4688 5.50977 37.7959 12.2998z"/>
			<glyph glyph-name="frosty-head-secondary" unicode="&#x10f79b;" horiz-adv-x="384"
				   d="M357 118.6c12.7002 -70.1992 -18.0996 -133.8 -69.5 -169.6c-10.2158 -7.1543 -28.6279 -12.9785 -41.0996 -13h-109.601c-12.0996 0 -24.3994 2.59961 -34.5996 9.09961c-46.9004 29.9004 -78.2002 82.1006 -78.2002 142v0.19043
c0 21.0889 7.34668 53.6631 16.4004 72.71h302.899c5.30469 -10.9219 11.4424 -29.4697 13.7002 -41.4004zM130.7 85.2998c11.7461 0.0107422 21.2891 9.55371 21.2998 21.2998c0 11.7578 -9.54199 21.3008 -21.2998 21.3008s-21.2998 -9.54297 -21.2998 -21.3008
c0 -11.7568 9.54199 -21.2998 21.2998 -21.2998zM192 -16c0 0 32 46.2998 32 64c0 17.6641 -14.3359 32 -32 32s-32 -14.3359 -32 -32c0 -17.7002 32 -64 32 -64zM253.3 85.2998c11.7471 0.0107422 21.2891 9.55371 21.2998 21.2998
c0 11.7578 -9.54199 21.3008 -21.2998 21.3008s-21.2998 -9.54297 -21.2998 -21.3008c0 -11.7568 9.54199 -21.2998 21.2998 -21.2998z"/>
			<glyph glyph-name="gifts-secondary" unicode="&#x10f79c;" horiz-adv-x="640"
				   d="M27 396.28l9.2998 13c2.64258 3.69336 8.47266 6.69043 13.0137 6.69043c2.8252 0 6.98535 -1.33105 9.28613 -2.9707l32.1006 -22.7998l-11.5 30.5801c-0.584961 1.51953 -1.05957 4.0752 -1.05957 5.70312c0 6.09961 4.6416 12.7734 10.3594 14.8965l15 5.60059
c1.49707 0.55957 4.00879 1.01367 5.60645 1.01367c6.13477 0 12.8516 -4.66504 14.9932 -10.4141l19.9004 -53.0996l19.9004 53c2.1416 5.74805 8.8584 10.4141 14.9932 10.4141c1.59766 0 4.10938 -0.454102 5.60645 -1.01465l15 -5.59961
c5.74902 -2.1416 10.4141 -8.85938 10.4141 -14.9941c0 -1.59766 -0.454102 -4.10938 -1.01367 -5.60645l-11.5 -30.5996l32 22.9004c2.30176 1.66504 6.47754 3.01758 9.31934 3.01758c4.54199 0 10.3574 -3.00977 12.9805 -6.71777l9.2998 -13
c1.66016 -2.30078 3.00781 -6.46973 3.00781 -9.30664c0 -4.53809 -3.00488 -10.3506 -6.70801 -12.9736l-30.6699 -22h-165.26l-30.6699 22c-3.68066 2.64258 -6.66895 8.46582 -6.66895 12.9971c0 2.82422 1.33008 6.98242 2.96875 9.2832zM224 192
c0 17.6641 14.3359 32 32 32h28c3.0791 -4.70215 8.99707 -11.5391 13.21 -15.2598l0.200195 -0.180664l0.200195 -0.169922l0.0595703 -0.0595703h0.0498047c10.5537 -9.01465 30.3828 -16.3301 44.2627 -16.3301h0.137695h65.8799v-88h-184v88zM456 -64v120h184v-88
c0 -17.6641 -14.3359 -32 -32 -32h-152zM608 224c17.6641 0 32 -14.3359 32 -32v-88h-184v88h65.8799h0.0351562c13.917 0 33.7881 7.35156 44.3545 16.4102h0.0507812l0.0693359 0.0595703l0.200195 0.169922l0.200195 0.180664
c4.20801 3.7002 10.126 10.501 13.21 15.1797h28zM224 56h184v-120h-152c-17.6641 0 -32 14.3359 -32 32v88z"/>
			<glyph glyph-name="gingerbread-man-secondary" unicode="&#x10f79d;" horiz-adv-x="416"
				   d="M322.21 144c-9.93555 0 -18.0029 -8.06445 -18.0029 -18c0 -0.0830078 0.00195312 -0.216797 0.00292969 -0.299805c0.00195312 -3.64453 1.88379 -8.88672 4.2002 -11.7002l58.2002 -69.7998c23.2998 -27.9004 21.5996 -72.2998 -7.10059 -94.7002
c-9.57812 -7.45312 -27.2021 -13.501 -39.3379 -13.501c-16.541 0 -38.5703 10.3047 -49.1719 23.001l-38.29 45.9004c-5.29688 6.36621 -16.3174 11.5342 -24.5996 11.5342s-19.3037 -5.16797 -24.6006 -11.5342l-38.3096 -45.9004
c-10.5801 -12.6963 -32.5791 -23 -49.1055 -23h-0.0947266h-0.22168c-12.0967 0 -29.6133 6.09277 -39.0986 13.5996c-28.6992 22.3008 -30.3994 66.8008 -7.09961 94.7002l58.21 69.7998c2.31641 2.81445 4.19727 8.05566 4.2002 11.7002
c0 10.0469 -8.1543 18.2002 -18.2002 18.2002h-29.79c-35.3467 0.0205078 -64.0332 28.7236 -64.0332 64.0703c0 2.97949 0.404297 7.78223 0.90332 10.7197c5.12988 31.4004 34.6104 53.21 66.5098 53.2197h65.8203c7.2002 0 10.5 8.5 5.5 13.7002
c-14.7383 15.3174 -26.7002 45.001 -26.7002 66.2568v0.0332031c0 58.8799 53 105.38 114.11 94.3896c37.5 -6.7998 68.5 -37.0996 76 -74.5996c6.69922 -33.5 -4.10059 -64.6904 -24.9004 -86.29c-1.31641 -1.27832 -2.38574 -3.80469 -2.38574 -5.63965
c0 -4.33887 3.52148 -7.86035 7.86035 -7.86035h0.0253906h65.8896c31.8008 0 61.4102 -21.7002 66.5107 -53.2002c0.499023 -2.94043 0.904297 -7.74707 0.904297 -10.7295c0 -35.3369 -28.6787 -64.04 -64.0146 -64.0703h-29.79zM176 352c8.83203 0 16 7.16797 16 16
s-7.16797 16 -16 16s-16 -7.16797 -16 -16s7.16797 -16 16 -16zM208 80c8.83203 0 16 7.16797 16 16s-7.16797 16 -16 16s-16 -7.16797 -16 -16s7.16797 -16 16 -16zM208 144c8.83203 0 16 7.16797 16 16s-7.16797 16 -16 16s-16 -7.16797 -16 -16s7.16797 -16 16 -16z
M208 208c8.83203 0 16 7.16797 16 16s-7.16797 16 -16 16s-16 -7.16797 -16 -16s7.16797 -16 16 -16zM240 352c8.83203 0 16 7.16797 16 16s-7.16797 16 -16 16s-16 -7.16797 -16 -16s7.16797 -16 16 -16z"/>
			<glyph glyph-name="glass-champagne-secondary" unicode="&#x10f79e;" horiz-adv-x="256"
				   d="M64.4404 227l13.5596 93h100l13.5898 -93c0.242188 -1.91797 0.438477 -5.04199 0.438477 -6.97461c0 -10.0273 -4.79297 -24.7422 -10.6982 -32.8457c-25.6396 -35.8096 -81.1504 -35.6494 -106.67 0c-5.88867 8.08691 -10.668 22.7686 -10.668 32.7715
c0 1.95312 0.200195 5.11133 0.448242 7.04883z"/>
			<glyph glyph-name="glass-cheers-secondary" unicode="&#x10f79f;" horiz-adv-x="640"
				   d="M378.84 291.95l84.21 34.9297l45.6006 -76c3.73926 -6.51953 6.77441 -17.9121 6.77441 -25.4277c0 -3.35352 -0.638672 -8.72168 -1.4248 -11.9824c-9 -39.2393 -56 -59 -90.4297 -37.7197c-9.58398 5.82324 -19.7842 19.3213 -22.7705 30.1299zM126.16 213.47
c-0.771484 3.23145 -1.39746 8.55078 -1.39746 11.8721c0 7.53223 3.0459 18.9463 6.79688 25.4785l45.5703 76l84.2305 -34.9404l-22 -86c-2.98633 -10.8125 -13.1914 -24.3105 -22.7803 -30.1299c-34.4199 -21.2803 -81.4199 -1.51953 -90.4199 37.7197z"/>
			<glyph glyph-name="glass-whiskey-secondary" unicode="&#x10f7a0;"
				   d="M119.53 32.8496l-30.0107 191.15h333.15l-29.8096 -191.22l-0.0703125 -0.430664v-0.30957h-273.06l-0.0605469 0.400391z"/>
			<glyph glyph-name="glass-whiskey-rocks-secondary" unicode="&#x10f7a1;"
				   d="M119.6 32.4102l-0.109375 0.439453l-35 223.15h343.17l-34.8701 -223.25l-0.0703125 -0.429688v-0.310547h-273.06zM327.43 214.3c-5.3584 5.35352 -15.8545 9.69922 -23.4297 9.69922s-18.0713 -4.3457 -23.4297 -9.69922l-46.8701 -46.8896
c-5.35352 -5.36426 -9.69727 -15.8672 -9.69727 -23.4453s4.34375 -18.0811 9.69727 -23.4453l46.8701 -46.8896c5.35742 -5.35547 15.8535 -9.70312 23.4297 -9.70312s18.0723 4.34766 23.4297 9.70312l46.8701 46.8896c5.35352 5.36426 9.69727 15.8672 9.69727 23.4453
s-4.34375 18.0811 -9.69727 23.4453zM128 192v-64c0 -17.6641 14.3359 -32 32 -32h53l-1.92969 1.87012c-10.5117 10.541 -19.042 31.1787 -19.042 46.0645c0 14.8867 8.53027 35.5244 19.042 46.0654l29.3994 29.4502c-4.17969 2.51172 -11.5312 4.5498 -16.4082 4.5498
h-0.0615234h-64c-17.6641 0 -32 -14.3359 -32 -32z"/>
			<glyph glyph-name="globe-snow-secondary" unicode="&#x10f7a3;" horiz-adv-x="448"
				   d="M67.9004 64c-41.8008 40.5996 -67.9004 97.0996 -67.9004 160c0 123.7 100.3 224 224 224s224 -100.3 224 -224c0 -62.9004 -26.2002 -119.4 -67.9004 -160h-124.1v32h57.7998c14.2002 0 22 15 12.9004 24.9004l-65.5 71.0996h30.0996
c10.7002 0 16.5 11.2998 9.7002 18.7002l-67.4004 73.2002c-2.17676 2.27637 -6.5 4.125 -9.64941 4.125c-3.15039 0 -7.47363 -1.84863 -9.65039 -4.125l-67.3994 -73.2002c-6.80078 -7.5 -1 -18.7002 9.69922 -18.7002h30.1006l-65.5 -71.0996
c-9.10059 -9.90039 -1.2998 -24.9004 12.8994 -24.9004h57.9004v-32h-124.1zM336 288c-8.83203 0 -16 -7.16797 -16 -16s7.16797 -16 16 -16s16 7.16797 16 16s-7.16797 16 -16 16zM240 384c-8.83203 0 -16 -7.16797 -16 -16s7.16797 -16 16 -16s16 7.16797 16 16
s-7.16797 16 -16 16zM80 224c-8.83203 0 -16 -7.16797 -16 -16s7.16797 -16 16 -16s16 7.16797 16 16s-7.16797 16 -16 16z"/>
			<glyph glyph-name="grip-lines-secondary" unicode="&#x10f7a4;"
				   d="M512 144v-32c0 -8.83203 -7.16797 -16 -16 -16h-480c-8.83203 0 -16 7.16797 -16 16v32c0 8.83203 7.16797 16 16 16h480c8.83203 0 16 -7.16797 16 -16z"/>
			<glyph glyph-name="hat-santa-secondary" unicode="&#x10f7a7;" horiz-adv-x="640"
				   d="M452.6 96h-393.899l89.7002 215.5c24.0801 57.6953 94.3643 104.521 156.883 104.521c43.4922 0 101.605 -26.9346 129.717 -60.1201l53.0996 -62.7002c-13.1396 -9.05176 -23.9805 -29.3457 -24.1992 -45.2998c-2.67578 -2.85059 -6.34961 -7.95801 -8.2002 -11.4004
l-71.7002 19.5z"/>
			<glyph glyph-name="hat-winter-secondary" unicode="&#x10f7a8;"
				   d="M128 177.9l-64 -32l-7.2002 3.59961c19.6006 50.0996 55.1006 104.9 119 140.5c0.400391 -0.400391 0.600586 -0.799805 1 -1.2002c9.04102 -9.09473 26.7822 -16.8008 39.6006 -17.2002c9.21094 -8.66602 26.9521 -15.7002 39.5996 -15.7002
s30.3887 7.03418 39.5996 15.7002c12.8164 0.404297 30.5566 8.11035 39.6006 17.2002c0.399414 0.400391 0.599609 0.799805 1 1.2002c63.7998 -35.5996 99.2998 -90.2998 119 -140.5l-7.2002 -3.59961l-64 32l-64 -32l-64 32l-64 -32zM496 0c8.83203 0 16 -7.16797 16 -16
v-32c0 -8.83203 -7.16797 -16 -16 -16h-480c-8.83203 0 -16 7.16797 -16 16v32c0 8.83203 7.16797 16 16 16h480z"/>
			<glyph glyph-name="holly-berry-secondary" unicode="&#x10f7aa;" horiz-adv-x="448"
				   d="M207.86 212.9c-0.400391 -39.8008 7.39941 -78.1006 22.8994 -112.301c0.678711 -1.53711 1.22852 -4.14941 1.22852 -5.83008c0 -7.17578 -5.79199 -13.6143 -12.9287 -14.3691c-12.748 -1.29102 -33.042 -5.36816 -45.2998 -9.10059
c-11.5859 -3.51953 -20.9893 -16.2031 -20.9893 -28.3125c0 -1.89844 0.353516 -4.93945 0.789062 -6.78711c2.92578 -12.4688 9.51074 -32.0918 14.7002 -43.7998c0.699219 -1.55371 1.2666 -4.19727 1.2666 -5.90039c0 -7.1416 -5.76465 -13.5479 -12.8662 -14.2998
c-35.9004 -3.40039 -71.6006 -14.9004 -104.8 -33.9004c-2.36816 -1.38477 -6.51758 -2.50977 -9.26074 -2.50977c-10.124 0 -18.3408 8.2168 -18.3408 18.3398c0 0.046875 0.000976562 0.123047 0.000976562 0.169922c-0.0996094 38.2002 -8 74.9004 -23 107.7
c-0.676758 1.53711 -1.22656 4.14746 -1.22656 5.82617c0 7.19531 5.80957 13.6348 12.9668 14.374c12.7363 1.29297 33.0137 5.36914 45.2598 9.09961c11.5859 3.51953 20.9893 16.2041 20.9893 28.3125c0 1.89844 -0.353516 4.93945 -0.789062 6.78809
c-2.9248 12.4688 -9.51074 32.0908 -14.7002 43.7998c-0.698242 1.55273 -1.26562 4.19629 -1.26562 5.89941c0 7.1416 5.76367 13.5488 12.8662 14.3008c37.2998 3.5 74.3994 15.8994 108.699 36.1992c2.07129 1.26074 5.71973 2.28418 8.14355 2.28418
c8.64453 0 15.6602 -7.01562 15.6602 -15.6602c0 -0.0888672 -0.000976562 -0.234375 -0.00292969 -0.323242zM435.06 82.4004c9.7002 -1 15.8008 -11.4004 11.5 -20.1006c-15 -32.7002 -22.7998 -69.5 -23 -107.7
c0.000976562 -0.0654297 0.00195312 -0.173828 0.00195312 -0.240234c0 -10.1016 -8.19824 -18.2998 -18.2998 -18.2998c-2.75879 0 -6.92578 1.13867 -9.30176 2.54004c-33.2002 19 -68.9004 30.5 -104.8 33.9004c-7.10254 0.751953 -12.8662 7.1582 -12.8662 14.2998
c0 1.7041 0.567383 4.34668 1.26562 5.90039c5.17773 11.7129 11.7627 31.335 14.7002 43.7998c0.435547 1.84766 0.789062 4.88867 0.789062 6.78809c0 12.1084 -9.40332 24.792 -20.9893 28.3115c-4.89941 1.5 -9.89941 2.5 -14.7998 3.7002
c2.55078 5.25293 4.62012 14.2539 4.62012 20.0928c0 5.42871 -1.80078 13.8535 -4.01953 18.8076c-12.9004 28.2998 -19.7002 60.7002 -19.9004 94c0 1.7002 0.200195 3.2998 0.200195 4.89941c-0.000976562 0.0605469 -0.00195312 0.157227 -0.00195312 0.216797
c0 8.67773 7.04297 15.7197 15.7207 15.7197c2.40137 0 6.02148 -1.00195 8.08105 -2.23633c34.2998 -20.2998 71.4004 -32.7002 108.7 -36.2002c7.10156 -0.751953 12.8662 -7.1582 12.8662 -14.2998c0 -1.70312 -0.567383 -4.34668 -1.2666 -5.89941
c-5.17676 -11.7139 -11.7627 -31.3359 -14.7002 -43.8008c-0.435547 -1.84766 -0.789062 -4.88867 -0.789062 -6.78711c0 -12.1084 9.40332 -24.793 20.9893 -28.3125c12.2754 -3.64453 32.5703 -7.7207 45.2998 -9.09961z"/>
			<glyph glyph-name="ice-skate-secondary" unicode="&#x10f7ac;" horiz-adv-x="576"
				   d="M568 32c4.41602 0 8 -3.58398 8 -8v-24c-0.0332031 -35.2949 -28.7051 -63.9668 -64 -64h-504c-4.41602 0 -8 3.58398 -8 8v32c0 4.41602 3.58398 8 8 8h88v48h48v-48h240v48h48v-48h72h0.0605469c13.2148 0 23.9395 10.7246 23.9395 23.9395v0.0605469v16
c0 4.41602 3.58398 8 8 8h32zM264 256c-4.41602 0 -8 3.58398 -8 8v16c0 4.41602 3.58398 8 8 8h56v-32h-56zM264 320c-4.41602 0 -8 3.58398 -8 8v16c0 4.41602 3.58398 8 8 8h56v-32h-56z"/>
			<glyph glyph-name="icicles-secondary" unicode="&#x10f7ad;"
				   d="M511.36 410.1l-87.5 -467.699c-1.7002 -8.60059 -14 -8.60059 -15.7002 0l-66.7002 363.8l-45.7998 -172.5c-0.956055 -3.12402 -4.38281 -5.66016 -7.65039 -5.66016c-3.2666 0 -6.69434 2.53613 -7.64941 5.66016l-34.1006 133.399l-46.5 -196.899
c-1.89941 -8.2998 -13.7002 -8.2998 -15.5996 0l-44.1602 187.3l-36.4004 -124.1c-2.39941 -7.2002 -12.5996 -7.2002 -15.0996 0l-87.1396 273.399c-0.746094 2.48438 -1.35156 6.60645 -1.35156 9.2002c0 17.6592 14.332 31.9951 31.9912 32h448
c17.6367 -0.0273438 31.9502 -14.3633 31.9502 -32v-0.0498047c-0.00683594 -1.62891 -0.25293 -4.24902 -0.549805 -5.85059h-0.0400391z"/>
			<glyph glyph-name="igloo-secondary" unicode="&#x10f7ae;" horiz-adv-x="576"
				   d="M384 64v-96h-192v96c0 52.9922 43.0078 96 96 96s96 -43.0078 96 -96z"/>
			<glyph glyph-name="mistletoe-secondary" unicode="&#x10f7b4;" horiz-adv-x="576"
				   d="M554 53.9004c-33.2998 -33.3008 -92.7002 -27.9004 -132.7 12.0996c-26 26 -38.5996 89.5996 -44.2002 130.9l-65.1992 65.1992v-96.2998c28.3994 -32.7002 72 -89.2002 72 -127.3c0 -56.5996 -43 -102.4 -96 -102.4s-96 45.8008 -96 102.4
c0 8.59961 2.5 18.2002 6.19922 28.0996c4.82324 -1.33008 12.7979 -2.4502 17.8008 -2.5h0.246094c39.6055 0 71.75 32.1436 71.75 71.75c0 17.748 -10.751 41.7383 -23.9961 53.5508v72.7998l-65.1006 -65.2998c-0.830078 -6.11035 -1.80957 -12.71 -3 -19.6006
c-13.9854 -6.2041 -25.3369 -23.6582 -25.3369 -38.958c0 -8.25195 4.18262 -20.1777 9.33691 -26.6221c-6.45996 -18.7197 -14.75 -35.2598 -25.2002 -45.7197c-40 -40 -99.3994 -45.4004 -132.699 -12.0996c-33.3008 33.2998 -28 92.6992 12 132.699
c26 26 89.5996 38.6006 130.899 44.2002l99.1299 99.1006v102.1c0 8.83203 7.16797 16 16 16h16c8.83203 0 16 -7.16797 16 -16v-16.2998c-7.32227 -10.5576 -13.2803 -29.5527 -13.2998 -42.4004v-0.124023c0 -12.8223 5.95801 -31.7627 13.2998 -42.2754l99.2002 -100.101
c41.2998 -5.59961 104.9 -18.2002 130.9 -44.2002c39.9697 -40 45.3994 -99.3994 11.9697 -132.699z"/>
			<glyph glyph-name="mitten-secondary" unicode="&#x10f7b5;" horiz-adv-x="448"
				   d="M368 32c8.83203 0 16 -7.16797 16 -16v-64c0 -8.83203 -7.16797 -16 -16 -16h-320c-8.83203 0 -16 7.16797 -16 16v64c0 8.83203 7.16797 16 16 16h320z"/>
			<glyph glyph-name="mug-hot-secondary" unicode="&#x10f7b6;"
				   d="M139.3 380.7c17.0215 -17.2275 33.418 -50.6924 36.6006 -74.7002c1.2998 -9.5 -6.5 -18 -16.3008 -18h-16.5h-0.000976562c-7.55957 0 -14.7266 6.04785 -15.999 13.5c-2.29102 14.1484 -12.3262 33.9053 -22.3994 44.0996
c-19.1328 19.4814 -37.3213 57.293 -40.6006 84.4004c-0.0478516 0.464844 -0.0878906 1.22266 -0.0878906 1.69043c0 9.00293 7.30762 16.3096 16.3105 16.3096h0.078125h16.3994c0.0429688 0 0.113281 0.000976562 0.15625 0.000976562
c7.69824 0 14.8408 -6.18262 15.9443 -13.8008c2.39258 -17.1807 14.2197 -41.1484 26.3994 -53.5zM287.9 306c1.2998 -9.5 -6.5 -18 -16.3008 -18h-16.5h-0.000976562c-7.55957 0 -14.7266 6.04785 -15.999 13.5c-2.29102 14.1484 -12.3262 33.9053 -22.3994 44.0996
c-19.1328 19.4814 -37.3213 57.293 -40.6006 84.4004c-1.19922 9.5 6.5 18 16.3008 18h16.3994c0.0429688 0 0.113281 0.000976562 0.15625 0.000976562c7.69824 0 14.8408 -6.18262 15.9443 -13.8008c2.39258 -17.1807 14.2197 -41.1484 26.3994 -53.5
c17.0215 -17.2275 33.418 -50.6924 36.6006 -74.7002z"/>
			<glyph glyph-name="ornament-secondary" unicode="&#x10f7b8;" horiz-adv-x="384"
				   d="M384.1 128c-0.0400391 -18.1982 -5.05762 -46.8701 -11.1992 -64h-361.7c-6.18262 17.0449 -11.2002 45.5938 -11.2002 63.7256c0 18.2979 5.10742 47.0928 11.4004 64.2744h361.199c6.17676 -17.124 11.3291 -45.7969 11.5 -64zM136.58 352
c-4.73633 8.2002 -8.58008 22.54 -8.58008 32.0098c0 35.3281 28.6719 64 64 64s64 -28.6719 64 -64c0 -9.46973 -3.84375 -23.8096 -8.58008 -32.0098h-110.84zM176 384c0 -8.83203 7.16797 -16 16 -16s16 7.16797 16 16s-7.16797 16 -16 16s-16 -7.16797 -16 -16z"/>
			<glyph glyph-name="restroom-secondary" unicode="&#x10f7bd;" horiz-adv-x="640"
				   d="M112 448c35.2949 -0.0332031 63.9668 -28.7051 64 -64c0 -35.3281 -28.6719 -64 -64 -64s-64 28.6719 -64 64s28.6719 64 64 64zM320 448c8.83203 0 16 -7.16797 16 -16v-480c0 -8.83203 -7.16797 -16 -16 -16h-32c-8.83203 0 -16 7.16797 -16 16v480
c0 8.83203 7.16797 16 16 16h32zM496 448c35.2949 -0.0332031 63.9668 -28.7051 64 -64c0 -35.3281 -28.6719 -64 -64 -64s-64 28.6719 -64 64s28.6719 64 64 64z"/>
			<glyph glyph-name="rv-secondary" unicode="&#x10f7be;" horiz-adv-x="640"
				   d="M240 0c0 -35.3281 -28.6719 -64 -64 -64s-64 28.6719 -64 64s28.6719 64 64 64s64 -28.6719 64 -64zM640 133.5v-69.5c-0.0498047 -17.6143 -14.3857 -31.9502 -32 -32h-21.5596c-12.4922 35.3242 -53.04 63.9932 -90.5078 63.9932
c-28.4346 0 -64.2715 -19.2295 -79.9922 -42.9229v202.93l101.579 -0.200195c14.6729 -0.00976562 35.0078 -8.43262 45.3906 -18.7998l58.29 -58.2998c10.3252 -10.3389 18.7471 -30.5889 18.7998 -45.2002zM572 160l-43.29 43.2998
c-2.57324 2.59473 -7.62793 4.7002 -11.2812 4.7002h-0.0185547h-37.4805v-48h92.0703zM495.92 64c35.3281 0 64 -28.6719 64 -64s-28.6719 -64 -64 -64s-64 28.6719 -64 64s28.6719 64 64 64z"/>
			<glyph glyph-name="scarf-secondary" unicode="&#x10f7c1;"
				   d="M509.72 52.29c1.27832 -1.28027 2.31543 -3.78711 2.31543 -5.5957c0 -1.85449 -1.08203 -4.40527 -2.41504 -5.69434l-11.3203 -11.3096c-1.29297 -1.29004 -3.82422 -2.33691 -5.64941 -2.33691c-1.82617 0 -4.35742 1.04688 -5.65039 2.33691l-117.28 117.1
l22.6104 22.5996zM301.83 79.0898l117.39 -117.2c1.29004 -1.29199 2.33691 -3.82324 2.33691 -5.64941s-1.04688 -4.35742 -2.33691 -5.65039l-11.2998 -11.2998c-1.29297 -1.29004 -3.82422 -2.33594 -5.65039 -2.33594c-1.8252 0 -4.35645 1.0459 -5.64941 2.33594
l-117.4 117.2zM166 124.29l22.6201 -22.5996l-118.4 -118.2c-1.29297 -1.29004 -3.82324 -2.33691 -5.64941 -2.33691s-4.35742 1.04688 -5.65039 2.33691l-11.2998 11.2998c-1.29004 1.29297 -2.33594 3.82422 -2.33594 5.65039c0 1.8252 1.0459 4.35645 2.33594 5.64941z
M120.69 169.39l22.6396 -22.5l-118.41 -118.199c-1.29297 -1.29004 -3.82422 -2.33691 -5.65039 -2.33691c-1.8252 0 -4.35645 1.04688 -5.64941 2.33691l-11.29 11.2998c-1.29004 1.29297 -2.33594 3.82324 -2.33594 5.64941s1.0459 4.35742 2.33594 5.65039zM347 124.29
l117.39 -117.2c1.29004 -1.29297 2.33691 -3.82422 2.33691 -5.64941c0 -1.82617 -1.04688 -4.35742 -2.33691 -5.65039l-11.2998 -11.2998c-1.29199 -1.28711 -3.82129 -2.33203 -5.64453 -2.33203c-1.82422 0 -4.35254 1.04492 -5.64551 2.33203l-117.41 117.2z
M92.9199 -39.1104l118.41 118.2l22.5898 -22.5996l-118.39 -118.2c-1.29395 -1.29199 -3.82715 -2.3418 -5.65527 -2.3418s-4.36133 1.0498 -5.65527 2.3418l-11.2998 11.2998c-1.29004 1.29297 -2.33594 3.82422 -2.33594 5.65039s1.0459 4.35742 2.33594 5.64941z"/>
			<glyph glyph-name="sd-card-secondary" unicode="&#x10f7c2;" horiz-adv-x="384"
				   d="M112 288v96h48v-96h-48zM192 288v96h48v-96h-48zM272 384h48v-96h-48v96z"/>
			<glyph glyph-name="shovel-snow-secondary" unicode="&#x10f7c3;"
				   d="M203.72 203.64c2.57129 -2.58398 4.6582 -7.63965 4.6582 -11.2842c0 -3.64551 -2.08691 -8.70117 -4.6582 -11.2852l-79.8994 -79.9004c-0.290039 -0.323242 -0.787109 -0.820312 -1.11035 -1.11035c-2.4375 -1.99023 -6.9707 -3.60547 -10.1182 -3.60547
c-8.83203 0 -16 7.16797 -16 16c0 3.64551 2.08691 8.70215 4.6582 11.2861l79.9004 79.8994l0.119141 0.129883c2.56152 2.53027 7.56055 4.58301 11.1602 4.58301c3.65918 0 8.7168 -2.11133 11.29 -4.71289zM245.06 139.72
c2.6416 3.04785 8.05859 5.52051 12.0908 5.52051c8.83203 0 16 -7.16797 16 -16c0 -4.03223 -2.47266 -9.44922 -5.52051 -12.0898l-79.8896 -79.9004c-0.350586 -0.389648 -0.730469 -0.759766 -1.11035 -1.11035c-2.4375 -1.99023 -6.9707 -3.60547 -10.1182 -3.60547
c-8.83203 0 -16 7.16797 -16 16c0 3.64551 2.08691 8.70215 4.6582 11.2861zM503.23 375.82c4.8291 -4.84668 8.74805 -14.333 8.74805 -21.1758c0 -6.8418 -3.91895 -16.3281 -8.74805 -21.1748l-24.4707 -24.4697c-12.0459 -12.123 -35.6924 -21.9619 -52.7832 -21.9619
c-4.10449 0 -10.7021 0.65918 -14.7266 1.47168c-5.2998 1.11035 -13.5342 3.97363 -18.3799 6.39062l-99.1699 -99.1807l-33.8604 33.8701l99.1797 99.1602c-2.41016 4.8457 -5.27734 13.0752 -6.39941 18.3701c-0.828125 4.06445 -1.49902 10.7305 -1.49902 14.8789
c0 17.0684 9.80176 40.71 21.8789 52.7705l24.4697 24.4707c4.84668 4.82617 14.3311 8.74316 21.1699 8.74316c6.83984 0 16.3242 -3.91699 21.1699 -8.74316zM444.94 342.82l11.79 11.79l-38.0508 38.0596l-11.79 -11.7803
c-4.30371 -4.37793 -7.79688 -12.9141 -7.79688 -19.0537c0 -1.45605 0.227539 -3.79688 0.506836 -5.22559c2.3916 -11.9307 14.208 -21.6133 26.376 -21.6133c6.12402 0 14.6211 3.50488 18.9648 7.82324z"/>
			<glyph glyph-name="skating-secondary" unicode="&#x10f7c5;" horiz-adv-x="448"
				   d="M400 0c8.83203 0 16 -7.16797 16 -16c0 -26.4961 -21.5039 -48 -48 -48h-96c-8.83203 0 -16 7.16797 -16 16s7.16797 16 16 16h96c8.83203 0 16 7.16797 16 16s7.16797 16 16 16zM117.8 -8.59961c2.5918 2.60254 7.67676 4.71582 11.3506 4.71582
c8.84082 0 16.0156 -7.17578 16.0156 -16.0166c0 -3.65039 -2.09082 -8.71289 -4.66602 -11.2998c-7.77637 -7.72852 -22.9863 -14.002 -33.9502 -14.002s-26.1738 6.27344 -33.9502 14.002l-67.8994 67.9004c-2.90234 2.62891 -5.25684 7.94043 -5.25684 11.8564
c0 8.83203 7.16797 16 16 16c3.91602 0 9.22754 -2.35449 11.8564 -5.25684l67.9004 -67.8994c2.58496 -2.58008 7.64746 -4.67285 11.2998 -4.67285s8.71484 2.09277 11.2998 4.67285zM400 448c26.4961 0 48 -21.5039 48 -48s-21.5039 -48 -48 -48s-48 21.5039 -48 48
s21.5039 48 48 48z"/>
			<glyph glyph-name="ski-jump-secondary" unicode="&#x10f7c7;"
				   d="M400 352c-26.4961 0 -48 21.5039 -48 48s21.5039 48 48 48s48 -21.5039 48 -48s-21.5039 -48 -48 -48zM510.7 257.8c0.707031 -4.27148 1.28027 -11.251 1.28027 -15.5811c0 -30.3975 -21.3604 -67.4102 -47.6807 -82.6191l-429.2 -220.899
c-2.85547 -1.47852 -7.78418 -2.6875 -11 -2.7002h-0.0400391c-13.248 0 -24 10.752 -24 24c0 8.04883 5.79688 17.5908 12.9404 21.2998l428.2 220.4c16.0996 9.2002 25.3994 28.7998 22.0996 48.0996c-0.18457 1.09668 -0.334961 2.88867 -0.334961 4
c0 13.2676 10.7676 24.0352 24.0352 24.0352c11.2158 0 21.833 -8.97559 23.7002 -20.0352z"/>
			<glyph glyph-name="ski-lift-secondary" unicode="&#x10f7c8;"
				   d="M488 160c13.248 0 24 -10.752 24 -24c-0.116211 -31.249 -23.9727 -65.4766 -53.25 -76.4004l-330.5 -122.1c-2.43066 -1.00488 -6.53906 -1.82129 -9.16992 -1.82129c-13.248 0 -24 10.752 -24 24c0 9.61914 7.42285 19.8438 16.5703 22.8213l330.55 122.2
c11.9883 4.47949 21.7549 18.502 21.7998 31.2998c0.0380859 13.21 10.79 23.9619 24 24zM112 320c-26.4961 0 -48 21.5039 -48 48s21.5039 48 48 48s48 -21.5039 48 -48s-21.5039 -48 -48 -48zM191.6 66.5996c-29.0996 -9.69922 -33.5498 -10.5996 -46.0996 -10.5996
c-30.6064 0.0234375 -66.2227 22.4238 -79.5 50l-63.6504 133c-1.29395 2.70996 -2.34375 7.34668 -2.34375 10.3496c0 13.2588 10.7607 24.0195 24.0195 24.0195c8.36133 0 18.0713 -6.12402 21.6748 -13.6689l63.5996 -133
c6.00391 -12.5537 22.1699 -22.7412 36.085 -22.7412c3.57324 0 9.22461 0.914062 12.6152 2.04102l18.4004 6.2002c2.04199 0.680664 5.44629 1.2334 7.59961 1.2334c13.2666 0 24.0332 -10.7676 24.0332 -24.0332c0 -9.5625 -7.3623 -19.7764 -16.4336 -22.8008zM256 448
v-176l-32 -8v184h32z"/>
			<glyph glyph-name="skiing-secondary" unicode="&#x10f7c9;"
				   d="M432 352c-26.4961 0 -48 21.5039 -48 48s21.5039 48 48 48s48 -21.5039 48 -48s-21.5039 -48 -48 -48zM505 -4.09961c3.8418 -3.87402 6.95898 -11.4453 6.95898 -16.9004s-3.11719 -13.0264 -6.95898 -16.9004c-14.3828 -14.3516 -42.5459 -26 -62.8652 -26h-0.134766
h-0.208008c-10.6729 0 -27.2012 3.62891 -36.8916 8.10059l-391.9 202.5c-7.7373 3.53906 -14.0166 13.3164 -14.0166 21.8252c0 13.248 10.752 24 24 24c3.55566 0 8.93848 -1.44531 12.0166 -3.22559l391 -202.1c14.5996 -6.7002 33 -3.40039 45.0996 8.7002
c3.86914 3.8916 11.4629 7.0498 16.9502 7.0498c5.48828 0 13.0811 -3.1582 16.9502 -7.0498zM120 356.4l-26.2002 23c-0.994141 0.863281 -1.80078 2.63184 -1.80078 3.94824c0 1.08789 0.583008 2.63379 1.30078 3.45117c0.845703 1.00391 2.59668 1.81836 3.9082 1.81836
c0.304688 0 0.793945 -0.0527344 1.0918 -0.118164l34.4004 -7h0.200195l11.0996 21.7002c11.5469 -5.98926 20.918 -21.4082 20.918 -34.416c0 -0.326172 -0.0078125 -0.857422 -0.0175781 -1.18457l175.92 -87l10.7598 -29c2.50879 -7.59863 9.67676 -17.7451 16 -22.6494
l-216.28 109.75c-6.00781 -5 -17.2275 -9.05859 -25.0439 -9.05859c-5.18262 0 -13.1367 1.9082 -17.7559 4.25879z"/>
			<glyph glyph-name="skiing-nordic-secondary" unicode="&#x10f7ca;" horiz-adv-x="576"
				   d="M336 352c-26.4961 0 -48 21.5039 -48 48s21.5039 48 48 48s48 -21.5039 48 -48s-21.5039 -48 -48 -48zM552 32c13.21 -0.0380859 23.9619 -10.79 24 -24c-0.0439453 -39.7002 -32.2998 -71.9561 -72 -72h-480c-13.248 0 -24 10.752 -24 24s10.752 24 24 24h42.9004
l53.9297 269.94c5.22168 -5.4873 15.6064 -9.94043 23.1807 -9.94043c2.15723 0 5.60645 0.420898 7.69922 0.94043l-52.21 -260.94h302.6l25.2002 176h20.7002h0.0419922c3.42578 0 8.7832 1.04395 11.958 2.33008l-25.5 -178.33h69.5c13.21 0.0380859 23.9619 10.79 24 24
c0 13.248 10.752 24 24 24z"/>
			<glyph glyph-name="sledding-secondary" unicode="&#x10f7cb;"
				   d="M400 320c-26.4961 0 -48 21.5039 -48 48s21.5039 48 48 48s48 -21.5039 48 -48s-21.5039 -48 -48 -48zM505 27.9004c3.85059 -3.88574 6.97656 -11.4795 6.97656 -16.9502s-3.12598 -13.0645 -6.97656 -16.9502c-14.3828 -14.3525 -42.5459 -26 -62.8652 -26h-0.134766
h-0.208008c-10.6729 0 -27.2012 3.62891 -36.8916 8.09961l-391.9 202.601c-7.18555 3.70215 -13.0176 13.2666 -13.0176 21.3496c0 13.2578 10.7598 24.0176 24.0176 24.0176c3.21484 0 8.14258 -1.19531 11 -2.66699l391 -202.2
c14.5996 -6.7002 33 -3.40039 45.0996 8.7002c3.86914 3.8916 11.4629 7.0498 16.9502 7.0498c5.48828 0 13.0811 -3.1582 16.9502 -7.0498z"/>
			<glyph glyph-name="sleigh-secondary" unicode="&#x10f7cc;" horiz-adv-x="640"
				   d="M639.9 36.2998c-2.2002 -39 -36.9004 -68.2998 -75.9004 -68.2998h-516c-8.83203 0 -16 7.16797 -16 16v16c0 8.83203 7.16797 16 16 16h519.3c13.5811 0.00390625 24.6025 11.0293 24.6025 24.6104c0 6.51367 -4.12305 15.1113 -9.20215 19.1895l-9.2998 7.40039
c-3.31836 2.65137 -6.01172 8.25098 -6.01172 12.499c0 3.09961 1.57324 7.58105 3.51172 10.001l10 12.5c2.65137 3.31738 8.25098 6.01074 12.498 6.01074c3.10059 0 7.58105 -1.57324 10.002 -3.51074l9.2998 -7.40039
c15.0918 -11.9443 27.3398 -37.2578 27.3398 -56.5049c0 -1.24121 -0.0625 -3.25586 -0.139648 -4.49512z"/>
			<glyph glyph-name="sms-secondary" unicode="&#x10f7cd;"
				   d="M256 416c141.4 0 256 -93.0996 256 -208s-114.6 -208 -256 -208h-0.359375c-30.5137 0 -78.4678 8.69141 -107.041 19.4004c-24.5996 -19.6006 -74.2998 -51.4004 -140.6 -51.4004h-0.0800781c-2.87305 0 -6.1084 2.15039 -7.21973 4.7998
c-0.373047 0.848633 -0.674805 2.29004 -0.674805 3.2168c0 1.75098 0.973633 4.20801 2.1748 5.4834c0.5 0.5 42.2998 45.4004 54.7998 95.7998c-35.5996 35.7002 -57 81.1006 -57 130.7c0 114.9 114.6 208 256 208zM128.2 144c23.3994 0 42.5 17.2998 42.3994 38.5996
c-0.0800781 9.45508 -6.03809 22.0439 -13.2998 28.1006l-21.8994 18.7998c-1.05176 0.788086 -1.99316 2.49023 -2.10059 3.7998c0 3.10059 4.40039 6.60059 10.4004 6.60059h12.2998c4.41602 0 8 3.58398 8 8v16c0 4.41602 -3.58398 8 -8 8h-12.2002
c-23.3994 0 -42.3994 -17.3008 -42.3994 -38.6006c0.0800781 -9.45508 6.03809 -22.0439 13.2998 -28.0996l21.8994 -18.7998c1.05176 -0.788086 1.99316 -2.49121 2.10059 -3.80078c0 -3.09961 -4.40039 -6.59961 -10.4004 -6.59961h-12.2998c-4.41602 0 -8 -3.58398 -8 -8
v-16c0 -4.41602 3.58398 -8 8 -8h12.2002zM320 152v104c0 8.83203 -7.16797 16 -16 16h-16h-0.0117188c-5.43945 0 -11.8408 -3.94238 -14.2881 -8.7998l-17.7002 -35.4004l-17.7002 35.4004c-2.42871 4.85742 -8.80762 8.7998 -14.2393 8.7998h-0.0605469h-16
c-8.83203 0 -16 -7.16797 -16 -16v-104c0 -4.41602 3.58398 -8 8 -8h16c4.41602 0 8 3.58398 8 8v68.2002l24.9004 -55.7998c1.22168 -2.43555 4.4248 -4.41211 7.14941 -4.41211s5.92773 1.97656 7.15039 4.41211l24.7998 55.7998v-68.2002c0 -4.41602 3.58398 -8 8 -8h16
c4.41602 0 8 3.58398 8 8zM368.3 144c23.4004 0 42.4004 17.2998 42.2998 38.5996c-0.0800781 9.45508 -6.03809 22.0439 -13.2998 28.1006l-21.8994 18.7998c-1.05176 0.788086 -1.99316 2.49023 -2.10059 3.7998c0 3.10059 4.40039 6.60059 10.4004 6.60059h12.2998
c4.41602 0 8 3.58398 8 8v16c0 4.41602 -3.58398 8 -8 8h-12.2002c-23.3994 0 -42.3994 -17.3008 -42.3994 -38.6006c0.0800781 -9.45508 6.03809 -22.0439 13.2998 -28.0996l21.8994 -18.7998c1.05176 -0.788086 1.99316 -2.49121 2.10059 -3.80078
c0 -3.09961 -4.40039 -6.59961 -10.4004 -6.59961h-12.2998c-4.41602 0 -8 -3.58398 -8 -8v-16c0 -4.41602 3.58398 -8 8 -8h12.2998z"/>
			<glyph glyph-name="snowboarding-secondary" unicode="&#x10f7ce;"
				   d="M431.85 352c-26.4961 0 -48 21.5039 -48 48s21.5039 48 48 48s48 -21.5039 48 -48s-21.5039 -48 -48 -48zM493.75 -23.9004c1.24805 -2.66797 2.26172 -7.22363 2.26172 -10.1699c0 -8.41992 -6.1875 -18.1553 -13.8115 -21.7295
c-9.53711 -4.52637 -25.8438 -8.2002 -36.4004 -8.2002h-0.0996094c-8.4541 0.0263672 -21.7598 2.40039 -29.7002 5.2998l-364.85 132.7c-18.6738 6.71387 -40.5811 26.7842 -48.9004 44.7998c-1.24316 2.66406 -2.25195 7.21094 -2.25195 10.1504
c0 13.249 10.7529 24.002 24.002 24.002c8.4375 0 18.1816 -6.20605 21.75 -13.8525c3.70312 -8.04102 13.4697 -17.001 21.7998 -20l364.8 -132.699c3.52734 -1.29785 9.43945 -2.35059 13.1982 -2.35059c4.72461 0 12.0283 1.63574 16.3018 3.65039
c2.66406 1.24316 7.21191 2.25195 10.1514 2.25195c8.4375 0 18.1816 -6.20605 21.749 -13.8525z"/>
			<glyph glyph-name="snowflakes-secondary" unicode="&#x10f7cf;" horiz-adv-x="640"
				   d="M528 328v28.4004l-28 -16.1006c-1.02246 -0.588867 -2.81055 -1.06641 -3.99121 -1.06641c-2.53516 0 -5.63086 1.77734 -6.90918 3.9668l-8 13.8994c-0.588867 1.02344 -1.06641 2.81152 -1.06641 3.99121c0 2.53613 1.77734 5.63086 3.9668 6.90918l28 16l-28 16
c-2.19336 1.27734 -3.97461 4.375 -3.97461 6.91309c0 1.17871 0.477539 2.96484 1.06445 3.9873l8 13.8994c1.27832 2.19238 4.37402 3.97168 6.91113 3.97168c1.18359 0 2.97461 -0.480469 3.99902 -1.07129l28 -16.1006v28.4004c0 4.41602 3.58398 8 8 8h16
c4.41602 0 8 -3.58398 8 -8v-28.4004l28 16.1006c1.02246 0.588867 2.81055 1.06641 3.99121 1.06641c2.53516 0 5.63086 -1.77734 6.90918 -3.9668l8 -13.8994c0.588867 -1.02344 1.06641 -2.81152 1.06641 -3.99121c0 -2.53613 -1.77734 -5.63086 -3.9668 -6.90918
l-27.8496 -16l27.8496 -16c2.23145 -1.27051 4.04199 -4.38477 4.04199 -6.95215c0 -1.16602 -0.466797 -2.93457 -1.04199 -3.94824l-8 -13.8994c-1.27344 -2.21387 -4.37988 -4.01074 -6.93457 -4.01074c-1.20508 0 -3.02734 0.498047 -4.06543 1.11035l-28 16.1006
v-28.4004c0 -4.41602 -3.58398 -8 -8 -8h-16c-4.41602 0 -8 3.58398 -8 8zM636 176c2.23145 -1.27051 4.04199 -4.38477 4.04199 -6.95215c0 -1.16602 -0.466797 -2.93457 -1.04199 -3.94824l-8 -13.8994c-1.27344 -2.21387 -4.37988 -4.01074 -6.93457 -4.01074
c-1.20508 0 -3.02734 0.498047 -4.06543 1.11035l-28 16.1006v-28.4004c0 -4.41602 -3.58398 -8 -8 -8h-16c-4.41602 0 -8 3.58398 -8 8v28.4004l-28 -16.1006c-1.02246 -0.588867 -2.81055 -1.06641 -3.99121 -1.06641c-2.53516 0 -5.63086 1.77734 -6.90918 3.9668
l-8 13.8994c-0.588867 1.02344 -1.06641 2.81152 -1.06641 3.99121c0 2.53613 1.77734 5.63086 3.9668 6.90918l28 16l-28 16c-2.19336 1.27734 -3.97461 4.375 -3.97461 6.91309c0 1.17871 0.477539 2.96484 1.06445 3.9873l8 13.8994
c1.27832 2.19238 4.37402 3.97168 6.91113 3.97168c1.18359 0 2.97461 -0.480469 3.99902 -1.07129l28 -16.1006v28.4004c0 4.41602 3.58398 8 8 8h16c4.41602 0 8 -3.58398 8 -8v-28.4004l28 16.1006c1.02246 0.588867 2.81055 1.06641 3.99121 1.06641
c2.53516 0 5.63086 -1.77734 6.90918 -3.9668l8 -13.8994c0.588867 -1.02344 1.06641 -2.81152 1.06641 -3.99121c0 -2.53613 -1.77734 -5.63086 -3.9668 -6.90918l-27.9199 -16zM65.4502 43.7002l7 26l56.6895 32.7295l-19 -70.7295
c-1.71094 -6.30176 -8.39941 -11.416 -14.9287 -11.416c-1.1123 0 -2.88672 0.231445 -3.96094 0.515625l-14.9004 4c-6.30371 1.70703 -11.4199 8.39258 -11.4199 14.9229c0 1.11719 0.233398 2.89844 0.520508 3.97754zM91.3701 365.1
c1.06934 0.282227 2.83594 0.510742 3.94238 0.510742c6.52734 0 13.2148 -5.11133 14.9277 -11.4102l19 -70.7402l-56.6699 32.7402l-7 26c-0.287109 1.0791 -0.520508 2.86035 -0.520508 3.97656c0 6.53125 5.11621 13.2168 11.4199 14.9229zM138.08 7.33984
l0.160156 0.160156l53.6602 53.6602l-0.0605469 -67.8604l-19.7002 -19.7002c-2.59082 -2.56543 -7.65332 -4.64746 -11.2998 -4.64746s-8.70898 2.08203 -11.2998 4.64746l-11.2998 11.3008c-2.60938 2.57227 -4.72754 7.63477 -4.72754 11.2998
c0 3.59082 2.0459 8.58203 4.56738 11.1396zM27.54 175.1l70.7598 -18.9893l-56.7598 -32.71l-26 7c-6.30371 1.70605 -11.4199 8.3916 -11.4199 14.9229c0 1.11621 0.232422 2.89746 0.519531 3.97656l4 14.9004c1.71094 6.30273 8.39941 11.418 14.9307 11.418
c1.11426 0 2.89258 -0.232422 3.96973 -0.518555zM8.66992 221.8l-4 14.9004c-0.291016 1.08789 -0.527344 2.88379 -0.527344 4.00977c0 6.58398 5.16406 13.2998 11.5273 14.9902l25.9502 7l56.7197 -32.7998l-70.7695 -19
c-1.07715 -0.286133 -2.85645 -0.518555 -3.9707 -0.518555c-6.53027 0 -13.2188 5.11523 -14.9297 11.418zM420.44 210.9l-70.7002 18.9697l56.7002 32.7295l26 -7c6.30273 -1.70996 11.418 -8.39844 11.418 -14.9297c0 -1.11426 -0.232422 -2.89258 -0.518555 -3.96973
l-4 -14.9004c-1.71484 -6.30176 -8.40625 -11.416 -14.9365 -11.416c-1.1123 0 -2.8877 0.231445 -3.96289 0.516602zM375.54 69.7998l7.01953 -26c0.286133 -1.07715 0.518555 -2.85547 0.518555 -3.96973c0 -6.53125 -5.11523 -13.2197 -11.418 -14.9297l-14.9004 -4
c-1.07617 -0.286133 -2.85352 -0.518555 -3.96777 -0.518555c-6.5293 0 -13.2148 5.11523 -14.9219 11.418l-19 70.7305zM439.44 164.1l4.01953 -14.9297c0.286133 -1.07715 0.518555 -2.85547 0.518555 -3.96973c0 -6.53125 -5.11621 -13.2197 -11.4189 -14.9307l-26 -7
l-56.6895 32.7305l70.6699 19c1.0752 0.285156 2.85059 0.515625 3.96289 0.515625c6.53027 0 13.2227 -5.11426 14.9375 -11.416zM382.54 342.2l-7.00977 -26l-56.6904 -32.7402l19 70.7402c1.70312 6.30469 8.38477 11.4219 14.916 11.4219
c1.11816 0 2.90332 -0.233398 3.98438 -0.522461l14.8994 -4c6.30273 -1.70996 11.418 -8.39844 11.418 -14.9297c0 -1.11426 -0.231445 -2.89258 -0.517578 -3.96973zM298.44 412.3l11.2695 -11.2998c2.56348 -2.5918 4.64355 -7.6543 4.64355 -11.2998
s-2.08008 -8.70801 -4.64355 -11.2998l-53.71 -53.7002v67.8994l19.8398 19.7002c2.59082 2.56543 7.65332 4.64844 11.2998 4.64844s8.70898 -2.08301 11.3008 -4.64844zM256 61.2998l53.4004 -53.7002c2.56348 -2.5918 4.64355 -7.6543 4.64355 -11.2998
s-2.08008 -8.70801 -4.64355 -11.2998l-11.3008 -11.2998c-2.59082 -2.56543 -7.65332 -4.64844 -11.2998 -4.64844s-8.70898 2.08301 -11.2998 4.64844l-19.6602 19.6602zM149.7 412.3c2.58887 2.55469 7.68262 4.62891 11.3193 4.62891
c3.6377 0 8.69141 -2.07422 11.2803 -4.62891l19.7002 -19.7002v-67.8994l-53.6602 53.7002c-2.60938 2.57227 -4.72656 7.63477 -4.72656 11.2998c0 3.59082 2.0459 8.58203 4.56641 11.1396c0.0400391 0.0488281 0.112305 0.120117 0.160156 0.160156z"/>
			</font>
</defs>
</svg>
